<?xml version="1.0" encoding="UTF-8"?>
<svg id="Layer_2" data-name="Layer 2" xmlns="http://www.w3.org/2000/svg" viewBox="0 0 138.4 209.32">
  <defs>
    <style>
      .cls-1 {
        fill: #5c382f;
      }

      .cls-1, .cls-2, .cls-3, .cls-4, .cls-5, .cls-6, .cls-7, .cls-8, .cls-9, .cls-10, .cls-11, .cls-12, .cls-13, .cls-14, .cls-15 {
        fill-rule: evenodd;
      }

      .cls-2 {
        fill: #657c4b;
      }

      .cls-16, .cls-3 {
        fill: #fff;
      }

      .cls-4 {
        fill: #c59234;
      }

      .cls-5 {
        fill: #ebebeb;
      }

      .cls-6 {
        fill: #f1efe9;
      }

      .cls-7 {
        fill: #edcbab;
      }

      .cls-8 {
        fill: #f7e8d8;
      }

      .cls-9 {
        fill: #553026;
      }

      .cls-10 {
        fill: #ab121a;
      }

      .cls-11 {
        fill: #dadad4;
      }

      .cls-12 {
        fill: #801325;
      }

      .cls-13 {
        fill: #d8d8d8;
      }

      .cls-14 {
        fill: #dd9968;
      }

      .cls-15 {
        fill: #c4c4c4;
      }
    </style>
  </defs>
  <g id="OBJECTS">
    <g>
      <g>
        <g>
          <g>
            <path class="cls-14" d="M114.13,181.6c.02,4.74,2.09,8.58,4.61,8.56,1.38,0,2.62-1.17,3.45-3,10.79,11.3,22.32-1.4,12.49-13.57-7.38-9.14-20.61-3.86-20.55,8Z"/>
            <path class="cls-7" d="M126.27,177.76c2.24-1.96,3.73-4.98,3.72-7.86,1.68.75,3.29,1.96,4.69,3.69,7.41,9.18,2.67,18.66-4.73,17.92-5.89-.77-6.77-4.92-7.39-7.56-.96-4.1,1.53-4.26,3.72-6.19Z"/>
          </g>
          <path class="cls-14" d="M24.27,181.6c-.02,4.74-2.09,8.58-4.61,8.56-1.38,0-2.62-1.17-3.45-3-10.79,11.3-22.32-1.4-12.49-13.57,7.38-9.14,20.61-3.86,20.55,8Z"/>
          <path class="cls-7" d="M12.13,177.76c-2.24-1.96-3.73-4.98-3.72-7.86-1.69.75-3.29,1.96-4.69,3.69-7.41,9.18-2.67,18.66,4.73,17.92,5.89-.77,6.77-4.92,7.39-7.56.95-4.1-1.52-4.26-3.72-6.19Z"/>
        </g>
        <g>
          <path class="cls-12" d="M100.6,143.41c4.39-3.22,19.06,9.35,25.61,18.28,8.7,11.88-7.2,23.53-15.9,11.64-6.54-8.93-14.1-26.71-9.71-29.93Z"/>
          <path class="cls-10" d="M104.34,143.23c6.22,1.88,16.63,11.33,21.86,18.47,3.17,4.33,3.07,8.63,1.25,11.77-2.44-.07-5.06-1.09-7.54-3.42-7.61-7.13-17.56-21.83-15.57-26.82Z"/>
          <path class="cls-12" d="M37.8,143.41c-4.39-3.22-19.06,9.35-25.61,18.28-8.7,11.88,7.2,23.53,15.9,11.64,6.54-8.93,14.1-26.71,9.71-29.93Z"/>
          <path class="cls-10" d="M34.06,143.23c-6.22,1.88-16.63,11.33-21.86,18.47-3.17,4.33-3.07,8.63-1.25,11.77,2.44-.07,5.06-1.09,7.54-3.42,7.61-7.13,17.56-21.83,15.57-26.82Z"/>
        </g>
      </g>
      <path class="cls-2" d="M22.87,142.05c5.91-26.16,22.66-71.98,33.35-82.74,11.11-11.19,17.65-8.08,2.62-13.06-9.77-3.23-15.29-9.4-13.25-15.67,4.35-13.4,35.04-12.62,20.77-15.41-11.11-2.18-11.11-6.53-7.85-11.19,3.27-4.66,16.35-4.62,12.91-2.95-1.89.92-6.81,2.86-7.31,4.15-.82,2.12,1.99,4.13,11.73,4.7,15.69.93,13.08,8.39,5.23,12.75-7.84,4.35-14.38,6.22,3.27,11.19,14.98,4.22,17.72,18.52,9.81,28.07-5.71,6.9-6.06,9.6-2.53,18.2,7.17,17.47,21.06,51.37,23.29,61.63-9.51-5.06-26.42-8.43-45.7-8.43s-36.95,3.52-46.33,8.77Z"/>
      <g>
        <path class="cls-4" d="M57.24,10.86c-1.01-1.6-.71-3.42.31-5.33,1.12.35,1.93,1.39,1.93,2.63,0,1.35-.97,2.47-2.25,2.71Z"/>
        <path class="cls-4" d="M66.4,8.28c1.2.49,2.89.9,5.16,1.21-.47.84-1.37,1.42-2.41,1.42-1.48,0-2.68-1.16-2.75-2.62Z"/>
        <path class="cls-4" d="M79.9,10.33c.83.14,1.59.31,2.27.5-.19.04-.39.07-.59.07-.63,0-1.21-.21-1.68-.57Z"/>
        <path class="cls-4" d="M61.62,19.29c1.26-.38,2.46-.7,3.53-.99-.49.77-1.35,1.28-2.32,1.28-.43,0-.84-.1-1.21-.28h0ZM64.73,14.82c-.9-.22-1.72-.45-2.46-.7.18-.04.37-.06.56-.06.74,0,1.4.29,1.9.76Z"/>
        <path class="cls-4" d="M75.26,14.06c1.52,0,2.75,1.23,2.75,2.75s-1.23,2.75-2.75,2.75-2.75-1.23-2.75-2.75,1.23-2.75,2.75-2.75Z"/>
        <path class="cls-4" d="M87.05,14.13c.61,1.46.09,3.12-1.22,4.72-.55-.5-.9-1.23-.9-2.04,0-1.3.9-2.39,2.12-2.68Z"/>
        <path class="cls-4" d="M56.73,22.72c1.52,0,2.75,1.23,2.75,2.75s-1.23,2.75-2.75,2.75-2.75-1.23-2.75-2.75,1.23-2.75,2.75-2.75Z"/>
        <path class="cls-4" d="M56.89,45.55c-.8-.32-1.56-.65-2.29-1-.39-.47-.62-1.08-.62-1.74,0-1.52,1.23-2.75,2.75-2.75s2.75,1.23,2.75,2.75-1.15,2.67-2.59,2.75Z"/>
        <path class="cls-4" d="M54.34,61.49c.65-.83,1.27-1.56,1.88-2.17.59-.59,1.16-1.14,1.72-1.66.91.45,1.54,1.39,1.54,2.47,0,1.52-1.23,2.75-2.75,2.75-1.03,0-1.92-.56-2.39-1.4Z"/>
        <path class="cls-4" d="M69.15,22.72c1.52,0,2.75,1.23,2.75,2.75s-1.23,2.75-2.75,2.75-2.75-1.23-2.75-2.75,1.23-2.75,2.75-2.75Z"/>
        <path class="cls-4" d="M69.15,40.05c1.52,0,2.75,1.23,2.75,2.75s-1.23,2.75-2.75,2.75-2.75-1.23-2.75-2.75,1.23-2.75,2.75-2.75Z"/>
        <path class="cls-4" d="M69.15,57.37c1.52,0,2.75,1.23,2.75,2.75s-1.23,2.75-2.75,2.75-2.75-1.23-2.75-2.75,1.23-2.75,2.75-2.75Z"/>
        <path class="cls-4" d="M80.49,22.95l-.43.24c.14-.09.28-.17.43-.24Z"/>
        <path class="cls-4" d="M81.58,40.05c1.52,0,2.75,1.23,2.75,2.75s-1.23,2.75-2.75,2.75-2.75-1.23-2.75-2.75,1.23-2.75,2.75-2.75Z"/>
        <path class="cls-4" d="M81.58,57.37c1.52,0,2.75,1.23,2.75,2.75s-1.23,2.75-2.75,2.75-2.75-1.23-2.75-2.75,1.23-2.75,2.75-2.75Z"/>
        <path class="cls-4" d="M94.73,40.15c.79.94,1.46,1.95,2,2.99-.17,1.36-1.33,2.41-2.73,2.41-1.52,0-2.75-1.23-2.75-2.75s1.23-2.75,2.75-2.75c.25,0,.5.03.73.1Z"/>
        <path class="cls-4" d="M96.33,58.66c-.6,1.12-1.33,2.2-2.18,3.23-.26.32-.51.63-.75.92-1.23-.28-2.15-1.37-2.15-2.69,0-1.52,1.23-2.75,2.75-2.75.98,0,1.84.51,2.33,1.28Z"/>
        <path class="cls-4" d="M50.41,31.39c1.52,0,2.75,1.23,2.75,2.75s-1.23,2.75-2.75,2.75-2.75-1.23-2.75-2.75,1.23-2.75,2.75-2.75Z"/>
        <path class="cls-4" d="M62.83,31.39c1.52,0,2.75,1.23,2.75,2.75s-1.23,2.75-2.75,2.75-2.75-1.23-2.75-2.75,1.23-2.75,2.75-2.75Z"/>
        <path class="cls-4" d="M62.19,54.14c1.34-.99,2.48-1.75,3.37-2.34-.16,1.36-1.32,2.42-2.73,2.42-.22,0-.44-.03-.64-.08Z"/>
        <path class="cls-4" d="M75.26,31.39c1.52,0,2.75,1.23,2.75,2.75s-1.23,2.75-2.75,2.75-2.75-1.23-2.75-2.75,1.23-2.75,2.75-2.75Z"/>
        <path class="cls-4" d="M75.26,48.71c1.52,0,2.75,1.23,2.75,2.75s-1.23,2.75-2.75,2.75-2.75-1.23-2.75-2.75,1.23-2.75,2.75-2.75Z"/>
        <path class="cls-4" d="M84.93,34c1.76.54,3.35,1.22,4.76,2.02-.5.54-1.22.87-2.01.87-1.52,0-2.75-1.23-2.75-2.75,0-.05,0-.1,0-.14Z"/>
        <path class="cls-4" d="M87.68,48.71c1.52,0,2.75,1.23,2.75,2.75s-1.23,2.75-2.75,2.75-2.75-1.23-2.75-2.75,1.23-2.75,2.75-2.75Z"/>
        <path class="cls-4" d="M98.43,49.27c.09,1.38,0,2.78-.25,4.17-.51-.5-.84-1.2-.84-1.98,0-.89.43-1.69,1.09-2.19Z"/>
      </g>
      <g>
        <g>
          <path class="cls-9" d="M43.78,188.67c-10.74,0-19.45,8.05-19.45,17.98h38.9c0-9.93-8.71-17.98-19.45-17.98Z"/>
          <path class="cls-1" d="M22.96,205.39h41.66c1.08,0,1.96.88,1.96,1.96h0c0,1.08-.88,1.96-1.96,1.96H22.96c-1.08,0-1.96-.88-1.96-1.96h0c0-1.08.88-1.96,1.96-1.96Z"/>
        </g>
        <g>
          <path class="cls-9" d="M94.62,188.67c-10.74,0-19.45,8.05-19.45,17.98h38.9c0-9.93-8.71-17.98-19.45-17.98Z"/>
          <path class="cls-1" d="M73.79,205.39h41.66c1.08,0,1.96.88,1.96,1.96h0c0,1.08-.88,1.96-1.96,1.96h-41.66c-1.08,0-1.96-.88-1.96-1.96h0c0-1.08.88-1.96,1.96-1.96Z"/>
        </g>
      </g>
      <path class="cls-12" d="M69.2,123.59c-23.54,0-42.63,25.98-42.63,48.25s19.08,32.42,42.63,32.42,42.62-10.14,42.62-32.42-19.08-48.25-42.62-48.25Z"/>
      <path class="cls-11" d="M69.2,134.81c-31,0-55.14,26.59-28.12,47.08l2.08-2.71c.37.13.75.25,1.12.38,11.19,12.92,39.21,12.6,49.84,0,.38-.12.76-.25,1.13-.38l2.08,2.71c27.02-20.5,2.87-47.08-28.12-47.08Z"/>
      <path class="cls-6" d="M69.2,189.13h.15c27.05-.2,35.48-54.32-.15-54.32s-27.16,54.29,0,54.32Z"/>
      <path class="cls-2" d="M69.2,107.57c-14.78,0-28.17,1.98-37.9,5.18-2.94,8.76-5.49,17.36-7.36,24.81-.39,1.55-.75,3.06-1.07,4.5,4.1-2.29,9.69-4.25,16.33-5.74,1.06-.24,2.15-.46,3.26-.67,7.39-1.41,15.87-2.25,24.92-2.35.6,0,1.21-.01,1.81-.01s1.21,0,1.81.01c9.05.1,17.54.94,24.92,2.35,1.11.21,2.2.44,3.26.67,6.31,1.41,11.68,3.25,15.71,5.4-.25-1.13-.63-2.54-1.13-4.18-1.89-6.19-5.42-15.66-9.31-25.59-9.44-2.72-21.77-4.37-35.26-4.37Z"/>
      <path class="cls-13" d="M69.2,137.27c9.53,0,17.26,6.11,17.26,13.65s-7.73,13.65-17.26,13.65-17.26-6.11-17.26-13.65,7.73-13.65,17.26-13.65Z"/>
      <g>
        <path class="cls-4" d="M37.34,117.85c1.52,0,2.75,1.23,2.75,2.75s-1.23,2.75-2.75,2.75-2.75-1.23-2.75-2.75,1.23-2.75,2.75-2.75Z"/>
        <path class="cls-4" d="M49.76,117.85c1.52,0,2.75,1.23,2.75,2.75s-1.23,2.75-2.75,2.75-2.75-1.23-2.75-2.75,1.23-2.75,2.75-2.75Z"/>
        <path class="cls-4" d="M62.18,117.85c1.52,0,2.75,1.23,2.75,2.75s-1.23,2.75-2.75,2.75-2.75-1.23-2.75-2.75,1.23-2.75,2.75-2.75Z"/>
        <path class="cls-4" d="M74.6,117.85c1.52,0,2.75,1.23,2.75,2.75s-1.23,2.75-2.75,2.75-2.75-1.23-2.75-2.75,1.23-2.75,2.75-2.75Z"/>
        <path class="cls-4" d="M87.02,117.85c1.52,0,2.75,1.23,2.75,2.75s-1.23,2.75-2.75,2.75-2.75-1.23-2.75-2.75,1.23-2.75,2.75-2.75Z"/>
        <path class="cls-4" d="M99.45,117.85c1.52,0,2.75,1.23,2.75,2.75s-1.23,2.75-2.75,2.75-2.75-1.23-2.75-2.75,1.23-2.75,2.75-2.75Z"/>
        <path class="cls-4" d="M31.02,126.51c1.52,0,2.75,1.23,2.75,2.75s-1.23,2.75-2.75,2.75-2.75-1.23-2.75-2.75,1.23-2.75,2.75-2.75Z"/>
        <path class="cls-4" d="M43.44,126.51c1.52,0,2.75,1.23,2.75,2.75s-1.23,2.75-2.75,2.75-2.75-1.23-2.75-2.75,1.23-2.75,2.75-2.75Z"/>
        <path class="cls-4" d="M55.86,126.51c1.52,0,2.75,1.23,2.75,2.75s-1.23,2.75-2.75,2.75-2.75-1.23-2.75-2.75,1.23-2.75,2.75-2.75Z"/>
        <path class="cls-4" d="M68.28,126.51c1.52,0,2.75,1.23,2.75,2.75s-1.23,2.75-2.75,2.75-2.75-1.23-2.75-2.75,1.23-2.75,2.75-2.75Z"/>
        <path class="cls-4" d="M80.7,126.51c1.52,0,2.75,1.23,2.75,2.75s-1.23,2.75-2.75,2.75-2.75-1.23-2.75-2.75,1.23-2.75,2.75-2.75Z"/>
        <path class="cls-4" d="M93.13,126.51c1.52,0,2.75,1.23,2.75,2.75s-1.23,2.75-2.75,2.75-2.75-1.23-2.75-2.75,1.23-2.75,2.75-2.75Z"/>
        <path class="cls-4" d="M105.55,126.51c1.52,0,2.75,1.23,2.75,2.75s-1.23,2.75-2.75,2.75-2.75-1.23-2.75-2.75,1.23-2.75,2.75-2.75Z"/>
      </g>
      <path class="cls-10" d="M31.3,112.75c9.73-3.2,23.12-5.18,37.9-5.18,13.49,0,25.81,1.65,35.26,4.37-2.21-5.66-4.54-11.47-6.75-16.91-8.27-1.72-18.04-2.71-28.51-2.71-11.89,0-22.87,1.28-31.78,3.44-2.14,5.54-4.21,11.3-6.12,16.99Z"/>
      <path class="cls-10" d="M37.42,95.76c8.91-2.17,19.89-3.44,31.78-3.44,10.47,0,20.25.99,28.51,2.71-2.25-5.56-4.37-10.73-6.1-14.94-1.44-3.51-2.24-6.04-2.28-8.27-6.22-.83-13.01-1.29-20.13-1.29-7.56,0-14.76.52-21.29,1.45-3.45,6.64-7.07,14.94-10.49,23.79Z"/>
      <g>
        <path class="cls-3" d="M65.96,70.56c-3.44.07-6.79.24-10.02.51l4.87,9.15,5.15-9.67Z"/>
        <path class="cls-3" d="M79.83,70.87c-3.26-.22-6.62-.34-10.06-.35l5.32,9.61,4.74-9.26Z"/>
        <path class="cls-3" d="M90.48,77.13c-.72-2.07-1.12-3.77-1.15-5.32-1.88-.25-3.81-.47-5.79-.65l4.63,9.83,2.3-3.86Z"/>
        <path class="cls-3" d="M52.5,71.4c-1.56.17-3.1.36-4.59.58-.8,1.53-1.6,3.15-2.41,4.85l2.49,4.16,4.52-9.59Z"/>
      </g>
      <path class="cls-4" d="M39.79,89.8c-.8,1.95-1.59,3.94-2.37,5.96,8.91-2.17,19.89-3.44,31.78-3.44,10.47,0,20.25.99,28.51,2.71-.76-1.89-1.52-3.73-2.24-5.5-7.97-1.55-17.25-2.44-27.15-2.44-10.48,0-20.26,1-28.54,2.72Z"/>
      <path class="cls-4" d="M104.46,111.94c-9.44-2.72-21.77-4.37-35.26-4.37-14.78,0-28.17,1.98-37.9,5.18-.57,1.7-1.12,3.38-1.66,5.06,9.79-3.36,23.5-5.44,38.68-5.44s28.6,2.04,38.36,5.34c-.72-1.89-1.47-3.82-2.23-5.76Z"/>
      <g>
        <path class="cls-5" d="M97.6,134.67c5.56,2.28,10.45,4.28,18.7,4.22,3.4-.03,6.17,2.71,6.2,6.1.03,3.4-2.71,6.18-6.11,6.2-10.75.09-16.71-2.35-23.48-5.13-18.64-7.65-28.79-7.65-47.43,0-6.78,2.78-12.73,5.22-23.48,5.13-3.4-.03-6.13-2.8-6.1-6.2.03-3.4,2.8-6.13,6.2-6.1,8.26.07,13.14-1.94,18.71-4.22,22.54-9.25,34.25-9.25,56.79,0Z"/>
        <g>
          <path class="cls-15" d="M97.6,134.67c5.56,2.28,10.45,4.28,18.7,4.22,3.4-.03,6.17,2.71,6.2,6.1.03,3.4-2.71,6.18-6.11,6.2-10.75.09-16.71-2.35-23.48-5.13-18.64-7.65-28.79-7.65-47.43,0-6.78,2.78-12.73,5.22-23.48,5.13-3.4-.03-6.13-2.8-6.1-6.2.03-3.4,2.8-6.13,6.2-6.1,8.26.07,13.14-1.94,18.71-4.22,22.54-9.25,34.25-9.25,56.79,0Z"/>
          <path class="cls-5" d="M97.6,134.67c5.56,2.28,10.45,4.28,18.7,4.22,2.48-.02,4.63,1.43,5.62,3.54-.98,2.07-3.08,3.52-5.52,3.54-10.75.09-16.71-2.35-23.48-5.13-18.64-7.65-28.79-7.65-47.43,0-6.78,2.78-12.73,5.22-23.48,5.13-2.45-.02-4.55-1.46-5.52-3.54.99-2.11,3.14-3.56,5.62-3.54,8.26.07,13.14-1.94,18.71-4.22,22.54-9.25,34.25-9.25,56.79,0Z"/>
          <path class="cls-3" d="M25.13,142.14c-.51,0-.93-.42-.93-.93s.41-.93.93-.93c5.35,0,11.35-2.39,17.83-4.97,7.97-3.17,16.64-6.62,25.98-6.47,9.33-.15,18.01,3.3,25.98,6.47,6.48,2.58,12.48,4.97,17.83,4.97.51,0,.93.42.93.93s-.41.93-.93.93c-5.68,0-11.85-2.46-18.51-5.11-7.81-3.11-16.31-6.49-25.28-6.34h-.03c-8.97-.15-17.47,3.23-25.28,6.34-6.66,2.65-12.83,5.11-18.51,5.11Z"/>
        </g>
      </g>
      <g>
        <path class="cls-14" d="M69.2,160.52c9.51,0,17.26-6.13,17.26-13.65s-7.75-13.65-17.26-13.65-17.26,6.13-17.26,13.65,7.75,13.65,17.26,13.65Z"/>
        <path class="cls-7" d="M69.2,133.22c7.81,0,14.4,4.1,16.53,9.72-2.13,5.62-8.73,9.73-16.53,9.73s-14.4-4.1-16.54-9.73c2.13-5.62,8.73-9.72,16.54-9.72Z"/>
        <path class="cls-8" d="M69.2,147.13c5.98,0,10.86-2.58,10.86-5.75s-4.88-5.75-10.86-5.75-10.87,2.58-10.87,5.75,4.88,5.75,10.87,5.75Z"/>
      </g>
      <g>
        <polygon class="cls-3" points="68.17 105.18 62.83 105.18 68.17 95.15 73.51 105.18 68.17 105.18"/>
        <polygon class="cls-3" points="54.67 105.68 49.34 106.02 54.03 95.67 60 105.34 54.67 105.68"/>
        <polygon class="cls-3" points="40.47 107.38 35.09 108.28 40.1 97.5 45.85 106.48 40.47 107.38"/>
        <polygon class="cls-3" points="81.45 105.68 86.78 106.02 82.09 95.67 76.12 105.34 81.45 105.68"/>
        <polygon class="cls-3" points="95.65 107.38 101.03 108.28 96.02 97.5 90.27 106.48 95.65 107.38"/>
      </g>
      <g>
        <polygon class="cls-16" points="60 85.29 54.03 75.62 49.34 85.97 54.67 85.63 60 85.29"/>
        <path class="cls-16" d="M41.67,87.33l5.38-.9-3.48-5.44c-.94,2.08-1.88,4.25-2.81,6.49l.91-.15Z"/>
        <polygon class="cls-16" points="81.45 85.63 86.78 85.97 82.09 75.62 76.12 85.29 81.45 85.63"/>
        <path class="cls-16" d="M92.16,81.43l-3.2,5,5.38.9.26.04c-.86-2.11-1.68-4.1-2.43-5.94Z"/>
        <polygon class="cls-16" points="68.17 75.1 62.83 85.13 68.17 85.13 73.51 85.13 68.17 75.1"/>
      </g>
      <path class="cls-4" d="M47.91,71.98c6.53-.93,13.73-1.45,21.29-1.45,7.12,0,13.91.46,20.13,1.29-.04-1.71.37-3.25,1.26-4.93-6.78-1.02-14.32-1.59-22.26-1.59-6.01,0-11.8.33-17.2.93-1.05,1.73-2.12,3.65-3.22,5.75Z"/>
    </g>
  </g>
</svg>