<?xml version="1.0" encoding="UTF-8"?>
<svg id="Layer_2" data-name="Layer 2" xmlns="http://www.w3.org/2000/svg" viewBox="0 0 138.4 155.73">
  <defs>
    <style>
      .cls-1 {
        fill: #5c382f;
      }

      .cls-1, .cls-2, .cls-3, .cls-4, .cls-5, .cls-6, .cls-7, .cls-8, .cls-9, .cls-10, .cls-11, .cls-12, .cls-13 {
        fill-rule: evenodd;
      }

      .cls-2 {
        fill: #fff;
      }

      .cls-3 {
        fill: #ebebeb;
      }

      .cls-4 {
        fill: #f1efe9;
      }

      .cls-5 {
        fill: #931420;
      }

      .cls-6 {
        fill: #edcbab;
      }

      .cls-7 {
        fill: #f7e8d8;
      }

      .cls-8 {
        fill: #553026;
      }

      .cls-9 {
        fill: #ab121a;
      }

      .cls-10 {
        fill: #801325;
      }

      .cls-11 {
        fill: #d8d8d8;
      }

      .cls-12 {
        fill: #dd9968;
      }

      .cls-13 {
        fill: #c4c4c4;
      }
    </style>
  </defs>
  <g id="OBJECTS">
    <g>
      <g>
        <g>
          <g>
            <path class="cls-12" d="M114.13,129.15c.02,4.74,2.09,8.58,4.61,8.56,1.38,0,2.62-1.17,3.45-3,10.79,11.3,22.32-1.4,12.49-13.57-7.38-9.14-20.61-3.86-20.55,8Z"/>
            <path class="cls-6" d="M126.27,125.31c2.24-1.97,3.73-4.98,3.72-7.86,1.68.75,3.29,1.96,4.69,3.69,7.41,9.18,2.67,18.66-4.73,17.92-5.89-.77-6.77-4.92-7.39-7.57-.96-4.1,1.53-4.26,3.72-6.19Z"/>
          </g>
          <path class="cls-12" d="M24.27,129.15c-.02,4.74-2.09,8.58-4.61,8.56-1.38,0-2.62-1.17-3.45-3-10.79,11.3-22.32-1.4-12.49-13.57,7.38-9.14,20.61-3.86,20.55,8Z"/>
          <path class="cls-6" d="M12.13,125.31c-2.24-1.97-3.73-4.98-3.72-7.86-1.69.75-3.29,1.96-4.69,3.69-7.41,9.18-2.67,18.66,4.73,17.92,5.89-.77,6.77-4.92,7.39-7.57.95-4.1-1.52-4.26-3.72-6.19Z"/>
        </g>
        <g>
          <path class="cls-10" d="M100.6,90.96c4.39-3.22,19.06,9.35,25.61,18.29,8.7,11.88-7.2,23.53-15.9,11.64-6.54-8.93-14.1-26.71-9.71-29.93Z"/>
          <path class="cls-9" d="M104.34,90.78c6.22,1.87,16.63,11.33,21.86,18.47,3.17,4.33,3.07,8.63,1.25,11.77-2.44-.07-5.06-1.09-7.54-3.42-7.61-7.13-17.56-21.83-15.57-26.82Z"/>
          <path class="cls-10" d="M37.8,90.96c-4.39-3.22-19.06,9.35-25.61,18.29-8.7,11.88,7.2,23.53,15.9,11.64,6.54-8.93,14.1-26.71,9.71-29.93Z"/>
          <path class="cls-9" d="M34.06,90.78c-6.22,1.87-16.63,11.33-21.86,18.47-3.17,4.33-3.07,8.63-1.25,11.77,2.44-.07,5.06-1.09,7.54-3.42,7.61-7.13,17.56-21.83,15.57-26.82Z"/>
        </g>
      </g>
      <g>
        <path class="cls-8" d="M43.2,135.08c-10.74,0-19.45,8.05-19.45,17.98h38.9c0-9.93-8.71-17.98-19.45-17.98Z"/>
        <path class="cls-1" d="M22.38,151.81h41.66c1.08,0,1.96.88,1.96,1.96h0c0,1.08-.88,1.96-1.96,1.96H22.38c-1.08,0-1.96-.88-1.96-1.96h0c0-1.08.88-1.96,1.96-1.96Z"/>
      </g>
      <g>
        <path class="cls-8" d="M94.03,135.08c-10.74,0-19.45,8.05-19.45,17.98h38.9c0-9.93-8.71-17.98-19.45-17.98Z"/>
        <path class="cls-1" d="M73.2,151.81h41.65c1.08,0,1.96.88,1.96,1.96h0c0,1.08-.88,1.96-1.96,1.96h-41.65c-1.08,0-1.96-.88-1.96-1.96h0c0-1.08.88-1.96,1.96-1.96Z"/>
      </g>
      <g>
        <path class="cls-13" d="M13.11,88.92c3.77,0,6.84-3.07,6.84-6.84s-3.08-6.84-6.84-6.84-6.84,3.07-6.84,6.84,3.07,6.84,6.84,6.84Z"/>
        <path class="cls-3" d="M13.11,75.23c-3.78,0-6.84,3.06-6.84,6.84,0,.96.2,1.87.55,2.7,1.19,1.01,2.73,1.61,4.41,1.61,3.78,0,6.84-3.06,6.84-6.84,0-.96-.2-1.87-.55-2.7-1.19-1-2.73-1.61-4.41-1.61Z"/>
        <path class="cls-2" d="M9.7,77.29c1.68-1.04,3.58-1.01,4.25.06.66,1.07-.16,2.79-1.84,3.83-1.68,1.04-3.58,1.01-4.25-.06-.66-1.07.16-2.79,1.84-3.83Z"/>
      </g>
      <path class="cls-9" d="M69.2,72.39c-23.54,0-42.63,25.2-42.63,46.82s19.08,31.45,42.63,31.45,42.62-9.84,42.62-31.45-19.08-46.82-42.62-46.82Z"/>
      <path class="cls-10" d="M40.71,6.12c-1.39,1.42-9.57,8.33-12.02,12.97-9.57,18.14-15.52,50.2-14.12,57.13.47,2.32,2.62,2.84,4.68,2.16,12.99-4.31,60.62-37.58,60.62-37.58L40.71,6.12Z"/>
      <path class="cls-4" d="M69.2,72.39c-23.54,0-42.63,21.19-42.63,39.37s19.08,26.45,42.63,26.45,42.62-8.27,42.62-26.45-19.08-39.37-42.62-39.37Z"/>
      <path class="cls-11" d="M69.2,73.32c-3.78,0-7.33,4.6-10.04,11.29-3.07,7.59-5,17.77-5,27.15,0,8.42,1.55,14.64,4.08,18.84,2.73,4.53,6.63,6.68,10.95,6.68s8.22-2.15,10.95-6.68c2.53-4.2,4.08-10.42,4.08-18.84,0-9.38-1.92-19.56-5-27.15-2.71-6.69-6.26-11.29-10.04-11.29h0ZM69.2,72.39c3,0,5.92.34,8.75.98,4.72,2.09,8.96,5.76,12.44,10.33,5.97,7.84,9.7,18.37,9.7,28.06,0,8.89-3.12,15.5-8.23,20.01-2.85,2.52-6.32,4.37-10.2,5.59-3.94.57-8.13.85-12.46.85s-8.52-.28-12.46-.85c-3.88-1.22-7.35-3.07-10.2-5.59-5.11-4.51-8.23-11.12-8.23-20.01,0-9.69,3.73-20.21,9.7-28.06,3.48-4.57,7.72-8.24,12.44-10.33,2.82-.64,5.75-.98,8.75-.98h0ZM63.35,74.25c-2.25,2.2-4.25,5.58-5.91,9.67-3.16,7.79-5.13,18.24-5.13,27.84,0,8.78,1.65,15.32,4.35,19.8,1.28,2.12,2.79,3.78,4.47,5-5.21-1-9.82-3.03-13.37-6.16-4.72-4.17-7.6-10.32-7.6-18.63,0-9.3,3.58-19.4,9.32-26.93,3.82-5.02,8.59-8.89,13.87-10.58h0ZM77.27,136.55c1.68-1.22,3.19-2.88,4.47-5,2.7-4.48,4.35-11.02,4.35-19.8,0-9.6-1.97-20.05-5.13-27.84-1.66-4.09-3.66-7.47-5.91-9.67,5.28,1.69,10.05,5.56,13.87,10.58,5.74,7.53,9.32,17.64,9.32,26.93,0,8.31-2.88,14.46-7.6,18.63-3.55,3.13-8.16,5.17-13.37,6.16Z"/>
      <g>
        <path class="cls-11" d="M75.11,96.03h0c13.1-2.81,26.11,5.61,28.92,18.71l1.54,7.19h0c-13.1,2.81-26.11-5.61-28.92-18.71l-1.54-7.19Z"/>
        <path class="cls-11" d="M64.47,97.49h0c-12.95-3.42-26.35,4.38-29.77,17.33l-1.88,7.11h0c12.95,3.42,26.35-4.38,29.77-17.33l1.88-7.11Z"/>
      </g>
      <path class="cls-9" d="M109.99,89.4c.52,2.07-5.19-.39-13.68-3.12-1.98,1.39-52.75,1.01-53.9.22-8.6,2.69-14.4,5.01-14.01,2.89C32.27,68.62.99,0,69.2,0s36.16,70.89,40.79,89.4Z"/>
      <path class="cls-5" d="M28.63,87.66c.19-2.07.13-4.49-.09-7.19,4.71-.7,8.32-2.18,12.26-3.79,22.54-9.25,34.25-9.25,56.79,0,3.91,1.6,7.48,3.07,12.13,3.77-.23,2.76-.28,5.2-.04,7.21-6.81-.74-11.55-2.68-16.77-4.82-18.64-7.65-28.79-7.65-47.43,0-5.24,2.15-9.99,4.1-16.85,4.83Z"/>
      <path class="cls-11" d="M69.2,87.96c9.53,0,17.26,6.11,17.26,13.65s-7.73,13.65-17.26,13.65-17.26-6.11-17.26-13.65,7.73-13.65,17.26-13.65Z"/>
      <path class="cls-7" d="M69.2,95.93c5.98,0,10.86-2.58,10.86-5.75s-4.88-5.75-10.86-5.75-10.87,2.58-10.87,5.75,4.88,5.75,10.87,5.75Z"/>
      <path class="cls-8" d="M81.21,90.22h0c13.4,0,24.36,10.96,24.36,24.36v7.35h0c-13.4,0-24.36-10.96-24.36-24.36v-7.35Z"/>
      <g>
        <path class="cls-8" d="M57.19,90.22h0c-13.4,0-24.36,10.96-24.36,24.36v7.35h0c13.4,0,24.36-10.96,24.36-24.36v-7.35Z"/>
        <path class="cls-1" d="M48.87,91.69c-9.33,3.42-16.04,12.41-16.04,22.88v7.35h.15c9.33-3.42,16.04-12.41,16.04-22.89v-7.35h-.15Z"/>
      </g>
      <path class="cls-1" d="M89.53,91.69c9.33,3.42,16.04,12.41,16.04,22.88v7.35h-.15c-9.33-3.42-16.04-12.41-16.04-22.89v-7.35h.15Z"/>
      <g>
        <polygon class="cls-12" points="69.18 26.54 74.21 34.73 83.55 36.98 77.32 44.29 78.06 53.87 69.18 50.2 60.3 53.87 61.05 44.29 54.82 36.98 64.15 34.73 69.18 26.54"/>
        <g>
          <path class="cls-12" d="M98.07,6.59l3.51,5.72,4.16,1c.86,1.06,1.64,2.17,2.34,3.32l-3.68,4.32.67,8.66-8.03-3.31-8.03,3.31.67-8.66-5.63-6.61,8.44-2.04,4.06-6.61c.52.29,1.03.58,1.52.88Z"/>
          <path class="cls-12" d="M41.8,5.69l4.07,6.62,8.44,2.04-5.63,6.61.67,8.66-8.03-3.31-8.03,3.31.67-8.66-3.71-4.36c.69-1.14,1.46-2.23,2.3-3.27l4.22-1.02,3.55-5.78c.48-.29.97-.57,1.47-.85Z"/>
        </g>
        <g>
          <polygon class="cls-12" points="97.04 50.8 101.58 58.19 110.02 60.23 104.39 66.84 105.06 75.5 97.04 72.18 89.01 75.5 89.68 66.84 84.05 60.23 92.49 58.19 97.04 50.8"/>
          <polygon class="cls-12" points="41.33 50.8 45.87 58.19 54.31 60.23 48.68 66.84 49.35 75.5 41.33 72.18 33.3 75.5 33.97 66.84 28.34 60.23 36.78 58.19 41.33 50.8"/>
        </g>
      </g>
      <path class="cls-13" d="M97.6,81.9c5.56,2.28,10.45,4.28,18.7,4.22,3.4-.03,6.17,2.71,6.2,6.1.03,3.4-2.71,6.18-6.11,6.2-10.75.09-16.71-2.35-23.48-5.13-18.64-7.65-28.79-7.65-47.43,0-6.78,2.78-12.73,5.22-23.48,5.13-3.4-.03-6.13-2.8-6.1-6.2.03-3.4,2.8-6.13,6.2-6.1,8.26.07,13.14-1.94,18.71-4.22,22.54-9.25,34.25-9.25,56.79,0Z"/>
      <path class="cls-3" d="M97.6,81.9c5.56,2.28,10.45,4.28,18.7,4.22,2.48-.02,4.63,1.43,5.62,3.54-.98,2.07-3.08,3.52-5.52,3.54-10.75.09-16.71-2.35-23.48-5.13-18.64-7.65-28.79-7.65-47.43,0-6.78,2.78-12.73,5.22-23.48,5.13-2.45-.02-4.55-1.46-5.52-3.54.99-2.11,3.14-3.56,5.62-3.54,8.26.07,13.14-1.94,18.71-4.22,22.54-9.25,34.25-9.25,56.79,0Z"/>
      <g>
        <path class="cls-12" d="M69.2,108.06c9.51,0,17.26-6.13,17.26-13.65s-7.75-13.65-17.26-13.65-17.26,6.13-17.26,13.65,7.75,13.65,17.26,13.65Z"/>
        <path class="cls-6" d="M69.2,80.77c7.81,0,14.4,4.1,16.53,9.73-2.13,5.62-8.73,9.72-16.53,9.72s-14.4-4.1-16.54-9.72c2.13-5.62,8.73-9.73,16.54-9.73Z"/>
        <path class="cls-7" d="M69.2,94.68c5.98,0,10.86-2.58,10.86-5.75s-4.88-5.75-10.86-5.75-10.87,2.58-10.87,5.75,4.88,5.75,10.87,5.75Z"/>
      </g>
      <path class="cls-2" d="M25.39,89.12c-.51,0-.93-.41-.93-.93s.41-.93.93-.93c5.35,0,11.35-2.39,17.83-4.97,7.97-3.17,16.64-6.62,25.98-6.47,9.33-.15,18.01,3.3,25.97,6.47,6.48,2.58,12.48,4.97,17.83,4.97.51,0,.93.42.93.93s-.41.93-.93.93c-5.68,0-11.85-2.45-18.51-5.11-7.81-3.11-16.31-6.49-25.28-6.34h-.03c-8.97-.15-17.47,3.23-25.28,6.34-6.66,2.65-12.83,5.11-18.51,5.11Z"/>
    </g>
  </g>
</svg>