<?xml version="1.0" encoding="UTF-8"?>
<svg id="Layer_2" data-name="Layer 2" xmlns="http://www.w3.org/2000/svg" viewBox="0 0 138.4 195.03">
  <defs>
    <style>
      .cls-1 {
        fill: #5c382f;
      }

      .cls-1, .cls-2, .cls-3, .cls-4, .cls-5, .cls-6, .cls-7, .cls-8, .cls-9, .cls-10, .cls-11, .cls-12, .cls-13 {
        fill-rule: evenodd;
      }

      .cls-2, .cls-14 {
        fill: #c24f3d;
      }

      .cls-3 {
        fill: #fff;
      }

      .cls-4 {
        fill: #ebebeb;
      }

      .cls-5 {
        fill: #f1efe9;
      }

      .cls-6 {
        fill: #edcbab;
      }

      .cls-7 {
        fill: #f7e8d8;
      }

      .cls-8 {
        fill: #553026;
      }

      .cls-9 {
        fill: #ab121a;
      }

      .cls-10 {
        fill: #801325;
      }

      .cls-11 {
        fill: #d8d8d8;
      }

      .cls-12 {
        fill: #dd9968;
      }

      .cls-13 {
        fill: #c4c4c4;
      }
    </style>
  </defs>
  <g id="OBJECTS">
    <g>
      <g>
        <g>
          <path class="cls-8" d="M43.54,174.39c-10.74,0-19.45,8.05-19.45,17.98h38.9c0-9.93-8.71-17.98-19.45-17.98Z"/>
          <path class="cls-1" d="M22.71,191.11h41.65c1.08,0,1.96.88,1.96,1.96h0c0,1.08-.88,1.96-1.96,1.96H22.71c-1.08,0-1.96-.88-1.96-1.96h0c0-1.08.88-1.96,1.96-1.96Z"/>
        </g>
        <g>
          <path class="cls-8" d="M94.37,174.39c-10.74,0-19.45,8.05-19.45,17.98h38.9c0-9.93-8.71-17.98-19.45-17.98Z"/>
          <path class="cls-1" d="M73.54,191.11h41.65c1.08,0,1.96.88,1.96,1.96h0c0,1.08-.88,1.96-1.96,1.96h-41.65c-1.08,0-1.96-.88-1.96-1.96h0c0-1.08.88-1.96,1.96-1.96Z"/>
        </g>
      </g>
      <path class="cls-10" d="M69.2,109.14c-23.54,0-42.63,25.98-42.63,48.25s19.08,32.41,42.63,32.41,42.62-10.14,42.62-32.41-19.08-48.25-42.62-48.25Z"/>
      <g>
        <g>
          <g>
            <path class="cls-12" d="M114.13,167.14c.02,4.74,2.09,8.58,4.61,8.56,1.38,0,2.62-1.17,3.44-3,10.79,11.3,22.32-1.4,12.49-13.57-7.38-9.14-20.61-3.87-20.55,8Z"/>
            <path class="cls-6" d="M126.27,163.3c2.24-1.96,3.73-4.98,3.72-7.86,1.69.75,3.29,1.96,4.69,3.69,7.41,9.18,2.67,18.66-4.73,17.92-5.89-.77-6.77-4.92-7.39-7.56-.96-4.1,1.52-4.26,3.72-6.19Z"/>
          </g>
          <path class="cls-12" d="M24.27,167.14c-.02,4.74-2.09,8.58-4.61,8.56-1.38,0-2.62-1.17-3.44-3-10.79,11.3-22.32-1.4-12.5-13.57,7.38-9.14,20.61-3.87,20.55,8Z"/>
          <path class="cls-6" d="M12.13,163.3c-2.24-1.96-3.73-4.98-3.72-7.86-1.68.75-3.29,1.96-4.69,3.69-7.41,9.18-2.67,18.66,4.73,17.92,5.89-.77,6.77-4.92,7.39-7.56.96-4.1-1.52-4.26-3.72-6.19Z"/>
        </g>
        <g>
          <path class="cls-10" d="M100.6,128.95c4.39-3.21,19.06,9.35,25.61,18.29,8.7,11.88-7.2,23.53-15.9,11.65-6.54-8.93-14.1-26.71-9.71-29.93Z"/>
          <path class="cls-9" d="M104.34,128.77c6.22,1.87,16.63,11.33,21.86,18.47,3.17,4.33,3.07,8.63,1.25,11.77-2.44-.07-5.06-1.09-7.54-3.42-7.61-7.13-17.56-21.83-15.57-26.82Z"/>
          <path class="cls-10" d="M37.8,128.95c-4.39-3.21-19.07,9.35-25.61,18.29-8.7,11.88,7.2,23.53,15.9,11.65,6.54-8.93,14.1-26.71,9.71-29.93Z"/>
          <path class="cls-9" d="M34.06,128.77c-6.22,1.87-16.63,11.33-21.86,18.47-3.17,4.33-3.07,8.63-1.25,11.77,2.44-.07,5.06-1.09,7.54-3.42,7.61-7.13,17.56-21.83,15.57-26.82Z"/>
        </g>
      </g>
      <g>
        <path class="cls-5" d="M69.2,97.11c-28.93,0-51.45,48.8-26.24,86.43l1.13-2.9c.5-1.29.98-2.33,1.46-3.6.43,2.45.69,3.12,2.3,5.07,9.51,11.45,34.62,11.17,43.36-.84,1.38-1.9,1.32-1.95,1.72-4.23.82,2.17,1.67,4.33,2.52,6.5,25.21-37.62,2.68-86.43-26.24-86.43Z"/>
        <path class="cls-11" d="M58.2,99.52c-.2.09-.4.18-.61.27-.17.22-.35.44-.52.66l-.66-.06c-.27.14-.54.3-.81.45l-.17,1.76c-1.05,1.4-2.04,2.78-2.97,4.14l2.59-.21,2.19-.17,1.55-.12c.07-.74.14-1.49.21-2.24.59-.78,1.21-1.56,1.84-2.34l-2.64-2.13h0ZM74.97,190.03c1.43-.23,2.83-.54,4.19-.94,3.77-12.08,5.76-23.34,6.44-35.69.34-6.21.35-12.69.1-19.69-1.18-.18-2.44-.32-3.71-.42.27,7.09.27,13.64-.08,19.9-.7,12.72-2.82,24.27-6.93,36.83h0ZM83.43,102.59l-.15-1.49c-.4-.24-.81-.46-1.22-.68l-.28.03-.22-.28c-.35-.18-.71-.35-1.06-.51l-2.48,2c.63.79,1.25,1.57,1.84,2.34.08.78.15,1.55.22,2.32l1.6.13,2.14.17,2.64.21c-.95-1.39-1.95-2.8-3.02-4.22h0ZM53.16,133.58c-.26,7.04-.25,13.57.1,19.82.68,12.4,2.68,23.7,6.48,35.83,1.35.37,2.75.67,4.17.87-4.12-12.59-6.25-24.16-6.96-36.91-.35-6.28-.35-12.85-.08-19.97-1.26.09-2.52.2-3.71.36h0ZM91.1,181.41c1.47-1.97,1.42-2.03,1.83-4.37l.58,1.53h0l1.28,3.29c2.63-12.57,8.38-30.98.36-42.38,1.28,11.9-.51,25.12-4.05,41.94h0ZM43.91,181.09l1.64-4.06c.33,1.91.37,2.42,1.49,4,.28.39.57.78.88,1.15-3.73-17.61-5.61-31.28-4.12-43.59.02-.2.05-.41.08-.61-8.68,10.67-2.51,30.87.03,43.11Z"/>
      </g>
      <path class="cls-9" d="M110,126.14c.96,3.87-19.87-8.11-40-8.06-.26,0-.53,0-.79,0-.26,0-.53,0-.79,0-20.13-.05-41.17,11.88-40,8.06L59.35,24.76C63.42,11.4,72.97.45,88.4.01c15.96-.46,26.86,14.33,28.28,28.83,1.04,10.6.23,13.27-1.17,14.7-4.23,4.32-7.44-18.72-19.99-20.29-6.3-.79-10.09,4.03-9.06,8.2l23.54,94.7Z"/>
      <g>
        <path class="cls-2" d="M42.24,80.82l.22-.71c-.04.25-.11.49-.22.71Z"/>
        <path class="cls-2" d="M37.08,97.72l.86-2.81c.48-.42,1.11-.67,1.8-.67,1.52,0,2.75,1.23,2.75,2.75s-1.23,2.75-2.75,2.75c-1.27,0-2.34-.86-2.66-2.03Z"/>
        <path class="cls-2" d="M39.73,111.57c1.52,0,2.75,1.23,2.75,2.75s-1.23,2.75-2.75,2.75-2.75-1.23-2.75-2.75,1.23-2.75,2.75-2.75Z"/>
        <path class="cls-2" d="M52.32,47.77l1.51-4.93c.66.5,1.08,1.29,1.08,2.19,0,1.46-1.14,2.66-2.59,2.75Z"/>
        <path class="cls-2" d="M52.16,59.59c1.52,0,2.75,1.23,2.75,2.75s-1.23,2.75-2.75,2.75-2.75-1.23-2.75-2.75,1.23-2.75,2.75-2.75Z"/>
        <path class="cls-2" d="M52.16,76.92c1.52,0,2.75,1.23,2.75,2.75s-1.23,2.75-2.75,2.75-2.75-1.23-2.75-2.75,1.23-2.75,2.75-2.75Z"/>
        <path class="cls-2" d="M52.16,94.24c1.52,0,2.75,1.23,2.75,2.75s-1.23,2.75-2.75,2.75-2.75-1.23-2.75-2.75,1.23-2.75,2.75-2.75Z"/>
        <path class="cls-2" d="M52.16,111.57c1.52,0,2.75,1.23,2.75,2.75s-1.23,2.75-2.75,2.75-2.75-1.23-2.75-2.75,1.23-2.75,2.75-2.75Z"/>
        <path class="cls-2" d="M64.84,13.11c.76-1.11,1.58-2.17,2.46-3.18.02.14.04.29.04.44,0,1.43-1.1,2.61-2.49,2.74Z"/>
        <path class="cls-2" d="M64.58,24.94c1.52,0,2.75,1.23,2.75,2.75s-1.23,2.75-2.75,2.75-2.75-1.23-2.75-2.75,1.23-2.75,2.75-2.75Z"/>
        <path class="cls-2" d="M64.58,42.27c1.52,0,2.75,1.23,2.75,2.75s-1.23,2.75-2.75,2.75-2.75-1.23-2.75-2.75,1.23-2.75,2.75-2.75Z"/>
        <path class="cls-2" d="M64.58,59.59c1.52,0,2.75,1.23,2.75,2.75s-1.23,2.75-2.75,2.75-2.75-1.23-2.75-2.75,1.23-2.75,2.75-2.75Z"/>
        <path class="cls-2" d="M64.58,76.92c1.52,0,2.75,1.23,2.75,2.75s-1.23,2.75-2.75,2.75-2.75-1.23-2.75-2.75,1.23-2.75,2.75-2.75Z"/>
        <path class="cls-2" d="M64.58,94.24c1.52,0,2.75,1.23,2.75,2.75s-1.23,2.75-2.75,2.75-2.75-1.23-2.75-2.75,1.23-2.75,2.75-2.75Z"/>
        <path class="cls-2" d="M64.58,111.57c1.52,0,2.75,1.23,2.75,2.75s-1.23,2.75-2.75,2.75-2.75-1.23-2.75-2.75,1.23-2.75,2.75-2.75Z"/>
        <path class="cls-2" d="M77,7.62c1.52,0,2.75,1.23,2.75,2.75s-1.23,2.75-2.75,2.75-2.75-1.23-2.75-2.75,1.23-2.75,2.75-2.75Z"/>
        <path class="cls-2" d="M77,24.94c1.52,0,2.75,1.23,2.75,2.75s-1.23,2.75-2.75,2.75-2.75-1.23-2.75-2.75,1.23-2.75,2.75-2.75Z"/>
        <path class="cls-2" d="M77,42.27c1.52,0,2.75,1.23,2.75,2.75s-1.23,2.75-2.75,2.75-2.75-1.23-2.75-2.75,1.23-2.75,2.75-2.75Z"/>
        <path class="cls-2" d="M77,59.59c1.52,0,2.75,1.23,2.75,2.75s-1.23,2.75-2.75,2.75-2.75-1.23-2.75-2.75,1.23-2.75,2.75-2.75Z"/>
        <path class="cls-2" d="M77,76.92c1.52,0,2.75,1.23,2.75,2.75s-1.23,2.75-2.75,2.75-2.75-1.23-2.75-2.75,1.23-2.75,2.75-2.75Z"/>
        <path class="cls-2" d="M77,94.24c1.52,0,2.75,1.23,2.75,2.75s-1.23,2.75-2.75,2.75-2.75-1.23-2.75-2.75,1.23-2.75,2.75-2.75Z"/>
        <path class="cls-2" d="M77,111.57c1.52,0,2.75,1.23,2.75,2.75s-1.23,2.75-2.75,2.75-2.75-1.23-2.75-2.75,1.23-2.75,2.75-2.75Z"/>
        <path class="cls-2" d="M89.42,7.62c1.52,0,2.75,1.23,2.75,2.75s-1.23,2.75-2.75,2.75-2.75-1.23-2.75-2.75,1.23-2.75,2.75-2.75Z"/>
        <path class="cls-2" d="M88.74,25.03c-.96.8-1.66,1.81-2.06,2.89,0-.07,0-.15,0-.23,0-1.28.88-2.36,2.07-2.67Z"/>
        <path class="cls-2" d="M89.15,42.28l1.31,5.29c-.32.13-.68.21-1.05.21-1.52,0-2.75-1.23-2.75-2.75,0-1.43,1.09-2.6,2.49-2.74Z"/>
        <path class="cls-2" d="M89.42,59.59c1.52,0,2.75,1.23,2.75,2.75s-1.23,2.75-2.75,2.75-2.75-1.23-2.75-2.75,1.23-2.75,2.75-2.75Z"/>
        <path class="cls-2" d="M89.42,76.92c1.52,0,2.75,1.23,2.75,2.75s-1.23,2.75-2.75,2.75-2.75-1.23-2.75-2.75,1.23-2.75,2.75-2.75Z"/>
        <path class="cls-2" d="M89.42,94.24c1.52,0,2.75,1.23,2.75,2.75s-1.23,2.75-2.75,2.75-2.75-1.23-2.75-2.75,1.23-2.75,2.75-2.75Z"/>
        <path class="cls-2" d="M89.42,111.57c1.52,0,2.75,1.23,2.75,2.75s-1.23,2.75-2.75,2.75-2.75-1.23-2.75-2.75,1.23-2.75,2.75-2.75Z"/>
        <path class="cls-2" d="M101.84,7.62c1.52,0,2.75,1.23,2.75,2.75s-1.23,2.75-2.75,2.75-2.75-1.23-2.75-2.75,1.23-2.75,2.75-2.75Z"/>
        <path class="cls-2" d="M104.35,28.84c-1.12-1.39-2.36-2.63-3.76-3.6.38-.19.8-.3,1.26-.3,1.52,0,2.75,1.23,2.75,2.75,0,.41-.09.8-.25,1.15Z"/>
        <path class="cls-2" d="M102.07,94.25l1.26,5.06c-.43.27-.94.43-1.49.43-1.52,0-2.75-1.23-2.75-2.75s1.23-2.75,2.75-2.75c.08,0,.15,0,.23,0Z"/>
        <circle class="cls-14" cx="101.84" cy="114.32" r="2.75"/>
        <path class="cls-2" d="M116.24,25.78c.19,1.02.34,2.04.44,3.06v.15c-.45.87-1.36,1.46-2.42,1.46-1.52,0-2.75-1.23-2.75-2.75s1.23-2.75,2.75-2.75c.78,0,1.48.32,1.98.84Z"/>
        <path class="cls-2" d="M116.03,42.9c-.16.24-.33.45-.51.63-.97.98-1.88.54-2.86-.75.45-.33,1.01-.52,1.61-.52.67,0,1.28.24,1.76.64Z"/>
        <path class="cls-2" d="M33.83,108.38l1.45-4.75c.55.5.89,1.22.89,2.03,0,1.38-1.02,2.52-2.34,2.72Z"/>
        <path class="cls-2" d="M34.61,125.46l-.69.23c-.16.03-.33.05-.51.05-1.52,0-2.75-1.23-2.75-2.75s1.23-2.75,2.75-2.75,2.75,1.23,2.75,2.75c0,1.09-.63,2.03-1.55,2.48Z"/>
        <path class="cls-2" d="M44.5,73.41l1.57-5.15c1.41.12,2.52,1.3,2.52,2.74,0,1.52-1.23,2.75-2.75,2.75-.49,0-.94-.13-1.34-.35Z"/>
        <path class="cls-2" d="M45.84,85.58c1.52,0,2.75,1.23,2.75,2.75s-1.23,2.75-2.75,2.75-2.75-1.23-2.75-2.75,1.23-2.75,2.75-2.75Z"/>
        <path class="cls-2" d="M45.84,102.9c1.52,0,2.75,1.23,2.75,2.75s-1.23,2.75-2.75,2.75-2.75-1.23-2.75-2.75,1.23-2.75,2.75-2.75Z"/>
        <path class="cls-2" d="M47.96,121.23c-1.69.46-3.31.95-4.86,1.43.16-1.37,1.32-2.43,2.73-2.43.85,0,1.62.39,2.12,1Z"/>
        <path class="cls-2" d="M55.6,37.05l.84-2.76c.49-.43,1.12-.69,1.82-.69,1.52,0,2.75,1.23,2.75,2.75s-1.23,2.75-2.75,2.75c-1.28,0-2.36-.87-2.66-2.06Z"/>
        <path class="cls-2" d="M58.26,50.93c1.52,0,2.75,1.23,2.75,2.75s-1.23,2.75-2.75,2.75-2.75-1.23-2.75-2.75,1.23-2.75,2.75-2.75Z"/>
        <path class="cls-2" d="M58.26,68.25c1.52,0,2.75,1.23,2.75,2.75s-1.23,2.75-2.75,2.75-2.75-1.23-2.75-2.75,1.23-2.75,2.75-2.75Z"/>
        <path class="cls-2" d="M58.26,85.58c1.52,0,2.75,1.23,2.75,2.75s-1.23,2.75-2.75,2.75-2.75-1.23-2.75-2.75,1.23-2.75,2.75-2.75Z"/>
        <path class="cls-2" d="M58.26,102.9c1.52,0,2.75,1.23,2.75,2.75s-1.23,2.75-2.75,2.75-2.75-1.23-2.75-2.75,1.23-2.75,2.75-2.75Z"/>
        <path class="cls-2" d="M70.68,16.28c1.52,0,2.75,1.23,2.75,2.75s-1.23,2.75-2.75,2.75-2.75-1.23-2.75-2.75,1.23-2.75,2.75-2.75Z"/>
        <path class="cls-2" d="M70.68,33.6c1.52,0,2.75,1.23,2.75,2.75s-1.23,2.75-2.75,2.75-2.75-1.23-2.75-2.75,1.23-2.75,2.75-2.75Z"/>
        <circle class="cls-14" cx="70.68" cy="53.68" r="2.75"/>
        <path class="cls-2" d="M70.68,68.25c1.52,0,2.75,1.23,2.75,2.75s-1.23,2.75-2.75,2.75-2.75-1.23-2.75-2.75,1.23-2.75,2.75-2.75Z"/>
        <path class="cls-2" d="M70.68,85.58c1.52,0,2.75,1.23,2.75,2.75s-1.23,2.75-2.75,2.75-2.75-1.23-2.75-2.75,1.23-2.75,2.75-2.75Z"/>
        <path class="cls-2" d="M70.68,102.9c1.52,0,2.75,1.23,2.75,2.75s-1.23,2.75-2.75,2.75-2.75-1.23-2.75-2.75,1.23-2.75,2.75-2.75Z"/>
        <path class="cls-2" d="M80.38,1.3c1.6-.49,3.28-.85,5.05-1.07.27.43.43.93.43,1.47,0,1.52-1.23,2.75-2.75,2.75s-2.75-1.23-2.75-2.75c0-.14.01-.27.03-.4Z"/>
        <path class="cls-2" d="M83.1,16.28c1.52,0,2.75,1.23,2.75,2.75s-1.23,2.75-2.75,2.75-2.75-1.23-2.75-2.75,1.23-2.75,2.75-2.75Z"/>
        <path class="cls-2" d="M83.1,33.6c1.52,0,2.75,1.23,2.75,2.75s-1.23,2.75-2.75,2.75-2.75-1.23-2.75-2.75,1.23-2.75,2.75-2.75Z"/>
        <path class="cls-2" d="M83.1,50.93c1.52,0,2.75,1.23,2.75,2.75s-1.23,2.75-2.75,2.75-2.75-1.23-2.75-2.75,1.23-2.75,2.75-2.75Z"/>
        <path class="cls-2" d="M83.1,68.25c1.52,0,2.75,1.23,2.75,2.75s-1.23,2.75-2.75,2.75-2.75-1.23-2.75-2.75,1.23-2.75,2.75-2.75Z"/>
        <path class="cls-2" d="M83.1,85.58c1.52,0,2.75,1.23,2.75,2.75s-1.23,2.75-2.75,2.75-2.75-1.23-2.75-2.75,1.23-2.75,2.75-2.75Z"/>
        <path class="cls-2" d="M83.1,102.9c1.52,0,2.75,1.23,2.75,2.75s-1.23,2.75-2.75,2.75-2.75-1.23-2.75-2.75,1.23-2.75,2.75-2.75Z"/>
        <path class="cls-2" d="M93.14.33c1.79.3,3.51.8,5.14,1.47-.05,1.47-1.26,2.65-2.75,2.65s-2.75-1.23-2.75-2.75c0-.5.13-.97.37-1.37Z"/>
        <path class="cls-2" d="M95.52,16.28c1.52,0,2.75,1.23,2.75,2.75s-1.23,2.75-2.75,2.75-2.75-1.23-2.75-2.75,1.23-2.75,2.75-2.75Z"/>
        <path class="cls-2" d="M95.61,68.25l1.28,5.14c-.4.23-.87.36-1.36.36-1.52,0-2.75-1.23-2.75-2.75s1.23-2.75,2.75-2.75h.09Z"/>
        <path class="cls-2" d="M95.52,85.58c1.52,0,2.75,1.23,2.75,2.75s-1.23,2.75-2.75,2.75-2.75-1.23-2.75-2.75,1.23-2.75,2.75-2.75Z"/>
        <path class="cls-2" d="M95.52,102.9c1.52,0,2.75,1.23,2.75,2.75s-1.23,2.75-2.75,2.75-2.75-1.23-2.75-2.75,1.23-2.75,2.75-2.75Z"/>
        <path class="cls-2" d="M98.2,123.64c-1.63-.54-3.39-1.1-5.24-1.66.4-1.03,1.4-1.75,2.57-1.75,1.52,0,2.75,1.23,2.75,2.75,0,.23-.03.45-.08.66Z"/>
        <path class="cls-2" d="M107.95,16.28c1.52,0,2.75,1.23,2.75,2.75s-1.23,2.75-2.75,2.75-2.75-1.23-2.75-2.75,1.23-2.75,2.75-2.75Z"/>
        <path class="cls-2" d="M110,38.19c-.74-1.42-1.54-2.99-2.44-4.56.13-.02.26-.03.39-.03,1.52,0,2.75,1.23,2.75,2.75,0,.71-.26,1.35-.7,1.83Z"/>
        <path class="cls-2" d="M108.54,120.29l1.19,4.78c-.48.41-1.1.66-1.79.66-1.52,0-2.75-1.23-2.75-2.75s1.23-2.75,2.75-2.75c.21,0,.41.02.6.07Z"/>
      </g>
      <path class="cls-4" d="M97.6,118.9c5.56,2.28,10.44,4.28,18.7,4.21,3.4-.03,6.18,2.71,6.2,6.11.03,3.4-2.71,6.18-6.11,6.2-10.75.09-16.7-2.35-23.48-5.13-18.64-7.65-28.79-7.65-47.43,0-6.78,2.78-12.73,5.22-23.48,5.13-3.4-.02-6.13-2.8-6.11-6.2.03-3.4,2.8-6.13,6.2-6.11,8.26.07,13.14-1.93,18.7-4.21,22.55-9.25,34.25-9.25,56.79,0Z"/>
      <g>
        <path class="cls-13" d="M97.6,118.9c5.56,2.28,10.44,4.28,18.7,4.21,3.4-.03,6.18,2.71,6.2,6.11.03,3.4-2.71,6.18-6.11,6.2-10.75.09-16.7-2.35-23.48-5.13-18.64-7.65-28.79-7.65-47.43,0-6.78,2.78-12.73,5.22-23.48,5.13-3.4-.02-6.13-2.8-6.11-6.2.03-3.4,2.8-6.13,6.2-6.11,8.26.07,13.14-1.93,18.7-4.21,22.55-9.25,34.25-9.25,56.79,0Z"/>
        <path class="cls-4" d="M97.6,118.9c5.56,2.28,10.44,4.28,18.7,4.21,2.48-.02,4.63,1.43,5.62,3.54-.98,2.08-3.08,3.52-5.52,3.54-10.75.09-16.7-2.35-23.48-5.13-18.64-7.65-28.79-7.65-47.43,0-6.78,2.78-12.73,5.22-23.48,5.13-2.45-.02-4.55-1.46-5.52-3.54.99-2.11,3.14-3.56,5.62-3.54,8.26.07,13.14-1.93,18.7-4.21,22.55-9.25,34.25-9.25,56.79,0Z"/>
        <path class="cls-3" d="M25.13,126.38c-.51,0-.93-.41-.93-.93s.42-.93.93-.93c5.35,0,11.35-2.39,17.83-4.97,7.97-3.17,16.64-6.62,25.98-6.47,9.33-.15,18.01,3.3,25.98,6.47,6.48,2.58,12.48,4.97,17.83,4.97.51,0,.93.41.93.93s-.41.93-.93.93c-5.68,0-11.85-2.45-18.51-5.11-7.81-3.11-16.31-6.49-25.28-6.34h-.03c-8.97-.15-17.47,3.23-25.28,6.34-6.66,2.65-12.83,5.11-18.51,5.11Z"/>
      </g>
      <g>
        <path class="cls-11" d="M69.2,122.82c9.53,0,17.26,6.11,17.26,13.65s-7.73,13.65-17.26,13.65-17.26-6.11-17.26-13.65,7.73-13.65,17.26-13.65Z"/>
        <g>
          <path class="cls-12" d="M69.2,146.06c9.51,0,17.26-6.13,17.26-13.65s-7.75-13.65-17.26-13.65-17.26,6.13-17.26,13.65,7.75,13.65,17.26,13.65Z"/>
          <path class="cls-6" d="M69.2,118.77c7.81,0,14.4,4.1,16.53,9.72-2.13,5.62-8.73,9.72-16.53,9.72s-14.4-4.1-16.53-9.72c2.13-5.62,8.73-9.72,16.53-9.72Z"/>
          <path class="cls-7" d="M69.2,132.67c5.98,0,10.86-2.58,10.86-5.75s-4.88-5.75-10.86-5.75-10.86,2.58-10.86,5.75,4.88,5.75,10.86,5.75Z"/>
        </g>
      </g>
      <g>
        <path class="cls-13" d="M116.33,57.19c3.77,0,6.84-3.08,6.84-6.84s-3.07-6.84-6.84-6.84-6.84,3.08-6.84,6.84,3.07,6.84,6.84,6.84Z"/>
        <path class="cls-4" d="M116.33,43.5c-3.78,0-6.84,3.06-6.84,6.84,0,.96.2,1.87.55,2.7,1.19,1,2.73,1.61,4.41,1.61,3.78,0,6.84-3.06,6.84-6.84,0-.96-.2-1.87-.55-2.7-1.19-1-2.73-1.61-4.41-1.61Z"/>
        <path class="cls-3" d="M112.92,45.57c1.68-1.04,3.58-1.02,4.25.06.66,1.07-.16,2.79-1.84,3.83-1.68,1.04-3.58,1.01-4.25-.06-.66-1.07.16-2.79,1.84-3.83Z"/>
      </g>
    </g>
  </g>
</svg>