<?xml version="1.0" encoding="UTF-8"?>
<svg id="Layer_2" data-name="Layer 2" xmlns="http://www.w3.org/2000/svg" viewBox="0 0 138.4 211.24">
  <defs>
    <style>
      .cls-1 {
        fill: #5f3731;
      }

      .cls-1, .cls-2, .cls-3, .cls-4, .cls-5, .cls-6, .cls-7, .cls-8, .cls-9, .cls-10, .cls-11, .cls-12, .cls-13, .cls-14, .cls-15 {
        fill-rule: evenodd;
      }

      .cls-2 {
        fill: #5c382f;
      }

      .cls-3 {
        fill: #657c4b;
      }

      .cls-4 {
        fill: #fff;
      }

      .cls-5 {
        fill: #c59234;
      }

      .cls-6 {
        fill: #ebebeb;
      }

      .cls-7 {
        fill: #f1efe9;
      }

      .cls-8 {
        fill: #edcbab;
      }

      .cls-9 {
        fill: #f7e8d8;
      }

      .cls-10 {
        fill: #553026;
      }

      .cls-11 {
        fill: #ab121a;
      }

      .cls-12 {
        fill: #801325;
      }

      .cls-13 {
        fill: #d8d8d8;
      }

      .cls-14 {
        fill: #dd9968;
      }

      .cls-15 {
        fill: #c4c4c4;
      }
    </style>
  </defs>
  <g id="OBJECTS">
    <g>
      <g>
        <g>
          <g>
            <path class="cls-14" d="M114.13,183.35c.02,4.74,2.09,8.58,4.61,8.56,1.38,0,2.62-1.17,3.45-3,10.79,11.3,22.32-1.4,12.49-13.57-7.38-9.14-20.61-3.87-20.55,8Z"/>
            <path class="cls-8" d="M126.27,179.51c2.24-1.96,3.73-4.98,3.72-7.86,1.69.75,3.29,1.96,4.69,3.69,7.41,9.18,2.67,18.66-4.73,17.92-5.89-.77-6.77-4.92-7.39-7.56-.96-4.1,1.52-4.26,3.71-6.19Z"/>
          </g>
          <path class="cls-14" d="M24.27,183.35c-.02,4.74-2.09,8.58-4.61,8.56-1.38,0-2.62-1.17-3.44-3-10.79,11.3-22.32-1.4-12.5-13.57,7.38-9.14,20.61-3.87,20.55,8Z"/>
          <path class="cls-8" d="M12.13,179.51c-2.24-1.96-3.73-4.98-3.72-7.86-1.68.75-3.29,1.96-4.69,3.69-7.41,9.18-2.67,18.66,4.73,17.92,5.89-.77,6.77-4.92,7.39-7.56.96-4.1-1.52-4.26-3.72-6.19Z"/>
        </g>
        <g>
          <path class="cls-12" d="M100.6,145.16c4.39-3.22,19.06,9.35,25.61,18.29,8.7,11.88-7.2,23.53-15.9,11.64-6.54-8.93-14.1-26.71-9.71-29.93Z"/>
          <path class="cls-11" d="M104.34,144.98c6.22,1.88,16.63,11.33,21.86,18.47,3.17,4.33,3.07,8.63,1.25,11.77-2.44-.07-5.06-1.09-7.54-3.42-7.61-7.13-17.56-21.83-15.57-26.82Z"/>
          <path class="cls-12" d="M37.8,145.16c-4.39-3.22-19.07,9.35-25.61,18.29-8.7,11.88,7.2,23.53,15.9,11.64,6.54-8.93,14.1-26.71,9.71-29.93Z"/>
          <path class="cls-11" d="M34.06,144.98c-6.22,1.88-16.63,11.33-21.86,18.47-3.17,4.33-3.07,8.63-1.25,11.77,2.44-.07,5.06-1.09,7.54-3.42,7.61-7.13,17.56-21.83,15.57-26.82Z"/>
        </g>
      </g>
      <g>
        <g>
          <path class="cls-10" d="M43.79,190.59c-10.74,0-19.45,8.05-19.45,17.98h38.9c0-9.93-8.71-17.98-19.45-17.98Z"/>
          <path class="cls-2" d="M22.96,207.32h41.65c1.08,0,1.96.88,1.96,1.96h0c0,1.08-.88,1.96-1.96,1.96H22.96c-1.08,0-1.96-.88-1.96-1.96h0c0-1.08.88-1.96,1.96-1.96Z"/>
        </g>
        <g>
          <path class="cls-10" d="M94.62,190.59c-10.74,0-19.45,8.05-19.45,17.98h38.9c0-9.93-8.71-17.98-19.45-17.98Z"/>
          <path class="cls-2" d="M73.79,207.32h41.65c1.08,0,1.96.88,1.96,1.96h0c0,1.08-.88,1.96-1.96,1.96h-41.65c-1.08,0-1.96-.88-1.96-1.96h0c0-1.08.88-1.96,1.96-1.96Z"/>
        </g>
      </g>
      <path class="cls-12" d="M69.2,125.34c-23.54,0-42.62,25.98-42.62,48.25s19.08,32.42,42.62,32.42,42.63-10.14,42.63-32.42-19.08-48.25-42.63-48.25Z"/>
      <path class="cls-13" d="M69.2,125.34c-23.54,0-42.62,19.94-42.62,37.05,0,8,7.25,18.22,13.11,23.69l2.18-3.49c.39.17.78.33,1.18.48,3.68,4.4,9.75,7.82,9.75,7.82l1.52-4.79c.21.04.42.07.64.11,3.59,5.46,14.25,8,14.25,8,0,0,10.66-2.54,14.25-8,.21-.03.43-.07.64-.11l1.52,4.79s6.07-3.42,9.75-7.82c.4-.16.79-.32,1.18-.48l2.18,3.49c5.86-5.47,13.11-15.68,13.11-23.69,0-17.1-19.08-37.05-42.63-37.05Z"/>
      <path class="cls-7" d="M69.2,125.34c-17.64,0-32.77,11.19-39.25,24-.77,2.62-1.18,5.25-1.18,7.82,0,8,6.88,18.22,12.44,23.69l2.07-3.49c.37.17.74.33,1.12.48,3.49,4.4,9.25,7.83,9.25,7.83l1.44-4.79c.2.04.4.07.6.11,3.41,5.46,13.52,8,13.52,8,0,0,10.11-2.54,13.52-8,.2-.03.4-.07.6-.11l1.44,4.79s5.76-3.42,9.25-7.82c.38-.16.75-.32,1.12-.49l2.07,3.49c5.56-5.47,12.44-15.68,12.44-23.69,0-2.57-.41-5.2-1.18-7.82-6.48-12.81-21.62-24-39.25-24Z"/>
      <path class="cls-3" d="M110,142.34c1.02,3.85-19.87-8.11-40-8.06-.26,0-.53,0-.79,0-.26,0-.53,0-.79,0-20.13-.05-41.03,11.91-40,8.06L64.9,4.9c1.73-6.53,6.86-6.53,8.6,0l36.5,137.45Z"/>
      <path class="cls-11" d="M46.52,74.12L64.9,4.9c1.73-6.53,6.86-6.53,8.6,0l18.38,69.22c-6.59-1.91-14.29-3.6-21.89-3.58-.26,0-.53,0-.79,0-.26,0-.53,0-.79,0-7.59-.02-15.29,1.67-21.89,3.58Z"/>
      <g>
        <path class="cls-5" d="M48.14,68.03l1.36-5.12c6.08-1.4,12.74-2.28,19.38-2.29v4.49c-6.53.01-13.16.98-19.12,2.49-.55.14-1.09.28-1.62.43Z"/>
        <path class="cls-5" d="M88.95,63.07l1.37,5.15c-.76-.22-1.53-.42-2.31-.62-5.96-1.51-12.59-2.48-19.12-2.49v-4.49c6.89.01,13.81.96,20.07,2.46Z"/>
        <path class="cls-5" d="M51.18,56.56l1.32-4.98c5.23-1.02,10.81-1.64,16.37-1.65v4.49c-6.02.01-12.11.83-17.7,2.14Z"/>
        <path class="cls-5" d="M85.93,51.71l1.33,5.01c-5.77-1.4-12.11-2.29-18.38-2.31v-4.49c5.8.01,11.62.68,17.05,1.79Z"/>
      </g>
      <path class="cls-11" d="M69.2,81.94c1.47-.91,3.22-1.41,5.34-1.41,5.73,0,10.38,4.65,10.38,10.38,0,8.22-7.18,10.87-12.15,15.83-1.96,1.96-5.17,1.96-7.13,0-4.97-4.96-12.15-7.61-12.15-15.83,0-5.73,4.65-10.38,10.38-10.38,2.12,0,3.87.5,5.34,1.41Z"/>
      <path class="cls-14" d="M69.2,85.07c1.33-1.31,3.01-2.07,5.34-2.07,4.36,0,7.9,3.54,7.9,7.91,0,1.47-.31,2.87-.97,4.18-1.07,2.12-2.89,3.67-4.73,5.11-1.98,1.56-3.93,3-5.72,4.8-1,1-2.63,1-3.63,0-1.79-1.79-3.74-3.24-5.72-4.8-1.83-1.44-3.66-2.99-4.73-5.11-.67-1.31-.97-2.71-.97-4.18,0-4.36,3.54-7.91,7.91-7.91,2.33,0,4.01.76,5.34,2.07Z"/>
      <path class="cls-4" d="M69.2,89.57c1.33-2.67,2.67-4,5.34-4,2.95,0,5.34,2.39,5.34,5.34,0,5.34-5.34,6.93-10.67,12.27-5.34-5.34-10.67-6.93-10.67-12.27,0-2.95,2.39-5.34,5.34-5.34,2.67,0,4,1.33,5.34,4Z"/>
      <g>
        <path class="cls-15" d="M97.6,135.11c5.56,2.28,10.44,4.28,18.7,4.22,3.4-.03,6.18,2.71,6.2,6.11.03,3.4-2.71,6.17-6.11,6.2-10.75.09-16.7-2.35-23.48-5.13-18.64-7.65-28.79-7.65-47.43,0-6.78,2.78-12.73,5.22-23.48,5.13-3.4-.03-6.13-2.8-6.11-6.2.03-3.4,2.8-6.13,6.2-6.11,8.26.07,13.14-1.94,18.7-4.22,22.55-9.25,34.25-9.25,56.79,0Z"/>
        <path class="cls-6" d="M97.6,135.11c5.56,2.28,10.44,4.28,18.7,4.22,2.48-.02,4.63,1.43,5.62,3.54-.98,2.08-3.08,3.52-5.52,3.54-10.75.09-16.7-2.35-23.48-5.13-18.64-7.65-28.79-7.65-47.43,0-6.78,2.78-12.73,5.22-23.48,5.13-2.45-.02-4.55-1.46-5.52-3.54.99-2.11,3.14-3.56,5.62-3.54,8.26.07,13.14-1.94,18.7-4.22,22.55-9.25,34.25-9.25,56.79,0Z"/>
      </g>
      <g>
        <path class="cls-13" d="M69.2,142.16c9.53,0,17.26,6.11,17.26,13.65s-7.73,13.65-17.26,13.65-17.26-6.11-17.26-13.65,7.73-13.65,17.26-13.65Z"/>
        <path class="cls-14" d="M69.2,162.27c9.51,0,17.26-6.13,17.26-13.65s-7.75-13.65-17.26-13.65-17.26,6.13-17.26,13.65,7.75,13.65,17.26,13.65Z"/>
        <path class="cls-8" d="M69.2,134.97c7.81,0,14.4,4.1,16.53,9.72-2.13,5.62-8.73,9.72-16.53,9.72s-14.4-4.1-16.53-9.72c2.13-5.62,8.73-9.72,16.53-9.72Z"/>
        <path class="cls-9" d="M69.2,148.88c5.98,0,10.86-2.58,10.86-5.75s-4.88-5.75-10.86-5.75-10.86,2.58-10.86,5.75,4.88,5.75,10.86,5.75Z"/>
      </g>
      <path class="cls-1" d="M104.22,120.6c-7.45-2.45-21.01-7.6-34.23-7.56-.26,0-.53,0-.79,0-.26,0-.53,0-.79,0-13.22-.03-26.77,5.12-34.23,7.56l-4.83,18.17c4.32-.74,7.73-2.14,11.45-3.67.71-.29,1.42-.58,2.11-.85,2.08-.82,4.07-1.56,5.98-2.22,15.04-5.16,25.57-5.16,40.62,0,1.91.66,3.9,1.4,5.98,2.22.69.27,1.39.56,2.11.85,3.72,1.52,7.13,2.93,11.45,3.67l-4.83-18.17Z"/>
      <g>
        <path class="cls-5" d="M32.83,125.69c3.18-1.47,6.64-2.81,10.28-3.95,7.96-2.51,16.88-4.12,25.77-4.14v6.8c-7.94.02-15.99,1.48-23.24,3.77-5.8,1.83-11.04,4.16-15.24,6.67l2.43-9.15Z"/>
        <path class="cls-5" d="M108.13,135.3c-4.33-2.69-9.85-5.2-16.01-7.14-7.24-2.28-15.3-3.75-23.24-3.77v-6.8c8.89.02,17.81,1.63,25.77,4.14,3.92,1.24,7.63,2.7,11.01,4.29l2.46,9.27Z"/>
      </g>
      <path class="cls-4" d="M25.39,142.58c-.51,0-.93-.41-.93-.93s.41-.93.93-.93c5.35,0,11.35-2.39,17.83-4.97,7.97-3.17,16.64-6.62,25.98-6.47,9.33-.15,18.01,3.3,25.98,6.47,6.48,2.58,12.48,4.97,17.83,4.97.51,0,.93.41.93.93s-.41.93-.93.93c-5.68,0-11.85-2.45-18.51-5.11-7.81-3.11-16.31-6.49-25.28-6.34h-.03c-8.97-.15-17.47,3.23-25.28,6.34-6.66,2.65-12.83,5.11-18.51,5.11Z"/>
    </g>
  </g>
</svg>