<?xml version="1.0" encoding="UTF-8"?>
<svg id="Layer_2" data-name="Layer 2" xmlns="http://www.w3.org/2000/svg" viewBox="0 0 138.4 182.19">
  <defs>
    <style>
      .cls-1 {
        fill: #5f3731;
      }

      .cls-1, .cls-2, .cls-3, .cls-4, .cls-5, .cls-6, .cls-7, .cls-8, .cls-9, .cls-10, .cls-11, .cls-12, .cls-13, .cls-14, .cls-15, .cls-16 {
        fill-rule: evenodd;
      }

      .cls-2 {
        fill: #5c382f;
      }

      .cls-3 {
        fill: #657c4b;
      }

      .cls-4 {
        fill: #fff;
      }

      .cls-5 {
        fill: #c59234;
      }

      .cls-6 {
        fill: #50613c;
      }

      .cls-7 {
        fill: #a4782e;
      }

      .cls-8 {
        fill: #ebebeb;
      }

      .cls-9 {
        fill: #f1efe9;
      }

      .cls-10 {
        fill: #edcbab;
      }

      .cls-11 {
        fill: #f7e8d8;
      }

      .cls-12 {
        fill: #553026;
      }

      .cls-13 {
        fill: #ab121a;
      }

      .cls-14 {
        fill: #d8d8d8;
      }

      .cls-15 {
        fill: #dd9968;
      }

      .cls-16 {
        fill: #c4c4c4;
      }
    </style>
  </defs>
  <g id="OBJECTS">
    <g>
      <g>
        <g>
          <g>
            <path class="cls-15" d="M114.13,152.99c.02,4.74,2.09,8.58,4.61,8.57,1.38,0,2.62-1.17,3.45-3,10.79,11.3,22.32-1.4,12.49-13.57-7.38-9.14-20.61-3.87-20.55,8Z"/>
            <path class="cls-10" d="M126.27,149.15c2.24-1.97,3.73-4.98,3.72-7.86,1.69.75,3.29,1.96,4.69,3.69,7.41,9.18,2.67,18.66-4.73,17.92-5.89-.77-6.77-4.92-7.39-7.57-.96-4.1,1.52-4.26,3.71-6.19Z"/>
          </g>
          <path class="cls-15" d="M24.27,152.99c-.02,4.74-2.09,8.58-4.61,8.57-1.38,0-2.62-1.17-3.44-3-10.79,11.3-22.32-1.4-12.5-13.57,7.38-9.14,20.61-3.87,20.55,8Z"/>
          <path class="cls-10" d="M12.13,149.15c-2.24-1.97-3.73-4.98-3.72-7.86-1.68.75-3.29,1.96-4.69,3.69-7.41,9.18-2.67,18.66,4.73,17.92,5.89-.77,6.77-4.92,7.39-7.57.96-4.1-1.52-4.26-3.72-6.19Z"/>
        </g>
        <g>
          <path class="cls-6" d="M100.6,114.8c4.39-3.22,19.06,9.35,25.61,18.29,8.7,11.88-7.2,23.53-15.9,11.65-6.54-8.93-14.1-26.71-9.71-29.93Z"/>
          <path class="cls-3" d="M104.34,114.62c6.22,1.88,16.63,11.33,21.86,18.47,3.17,4.33,3.07,8.63,1.25,11.77-2.44-.07-5.06-1.09-7.54-3.42-7.61-7.13-17.56-21.83-15.57-26.82Z"/>
          <path class="cls-6" d="M37.8,114.8c-4.39-3.22-19.07,9.35-25.61,18.29-8.7,11.88,7.2,23.53,15.9,11.65,6.54-8.93,14.1-26.71,9.71-29.93Z"/>
          <path class="cls-3" d="M34.06,114.62c-6.22,1.88-16.63,11.33-21.86,18.47-3.17,4.33-3.07,8.63-1.25,11.77,2.44-.07,5.06-1.09,7.54-3.42,7.61-7.13,17.56-21.83,15.57-26.82Z"/>
        </g>
      </g>
      <g>
        <g>
          <path class="cls-12" d="M43.79,161.55c-10.74,0-19.45,8.05-19.45,17.98h38.9c0-9.93-8.71-17.98-19.45-17.98Z"/>
          <path class="cls-2" d="M22.96,178.27h41.65c1.08,0,1.96.88,1.96,1.96h0c0,1.08-.88,1.96-1.96,1.96H22.96c-1.08,0-1.96-.88-1.96-1.96h0c0-1.08.88-1.96,1.96-1.96Z"/>
        </g>
        <g>
          <path class="cls-12" d="M94.62,161.55c-10.74,0-19.45,8.05-19.45,17.98h38.9c0-9.93-8.71-17.98-19.45-17.98Z"/>
          <path class="cls-2" d="M73.79,178.27h41.65c1.08,0,1.96.88,1.96,1.96h0c0,1.08-.88,1.96-1.96,1.96h-41.65c-1.08,0-1.96-.88-1.96-1.96h0c0-1.08.88-1.96,1.96-1.96Z"/>
        </g>
      </g>
      <path class="cls-6" d="M69.2,94.99c-23.54,0-42.62,25.97-42.62,48.25s19.08,32.42,42.62,32.42,42.63-10.14,42.63-32.42-19.08-48.25-42.63-48.25Z"/>
      <path class="cls-9" d="M69.2,94.99c-23.54,0-42.62,21.19-42.62,39.37,0,8.5,7.25,19.36,13.11,25.17l2.18-3.71c.39.18.78.35,1.18.52,3.68,4.68,9.75,8.32,9.75,8.32l1.52-5.09c.21.04.42.08.64.11,3.59,5.81,14.25,8.51,14.25,8.51,0,0,10.66-2.7,14.25-8.51.21-.04.43-.07.64-.11l1.52,5.09s6.07-3.63,9.75-8.31c.4-.17.79-.34,1.18-.52l2.18,3.71c5.86-5.81,13.11-16.67,13.11-25.17,0-18.17-19.08-39.37-42.63-39.37Z"/>
      <path class="cls-1" d="M110,111.99c1.21,3.8-19.87-8.11-40-8.06-.26,0-.53,0-.79,0-.26,0-.53,0-.79,0-20.13-.05-40.75,11.87-39.57,8.06L54.66,28.67c11.21-36.17,17.05-36.84,28.62-.53l26.71,83.85Z"/>
      <path class="cls-13" d="M35.61,90.15l19.06-61.48c11.21-36.17,17.05-36.84,28.62-.53l19.75,61.98c-7.67-2.57-20.54-7.15-33.04-7.12-.26,0-.53,0-.79,0-.26,0-.53,0-.79,0-12.54-.03-25.27,4.58-32.8,7.14Z"/>
      <path class="cls-7" d="M48.06,49.99l6.61-21.31c11.21-36.17,17.05-36.84,28.62-.53l6.94,21.78c-6.22-1.69-13.28-3.1-20.23-3.08-.26,0-.53,0-.79,0-.26,0-.53,0-.79,0-7.04-.02-14.14,1.43-20.35,3.16Z"/>
      <path class="cls-5" d="M68.97,0h.31c1.7.21,3.18,2.79,4.57,7.81,1.26,4.53,2.6,11.23,4.13,20.13l3,17.51c-.85-.13-1.71-.25-2.57-.36l-2.87-16.73c-1.52-8.84-2.85-15.46-4.07-19.88-1.08-3.89-1.88-5.88-2.45-6-.57.15-1.36,2.2-2.42,6.13-1.23,4.55-2.54,11.31-4.04,20.28l-2.71,16.22c-.86.11-1.71.23-2.56.36l2.84-16.99c1.51-9.05,2.84-15.9,4.09-20.51C65.6,2.83,67.1.17,68.84,0h.06s.07,0,.07,0Z"/>
      <polygon class="cls-4" points="69.2 49.62 73.99 59.82 85.16 61.22 76.95 68.92 79.07 79.98 69.2 74.55 59.34 79.98 61.45 68.92 53.24 61.22 64.41 59.82 69.2 49.62"/>
      <path class="cls-14" d="M69.2,108.67c9.53,0,17.26,6.11,17.26,13.65s-7.73,13.65-17.26,13.65-17.26-6.11-17.26-13.65,7.73-13.65,17.26-13.65Z"/>
      <g>
        <path class="cls-8" d="M97.6,106.06c5.56,2.28,10.44,4.28,18.7,4.22,3.4-.03,6.18,2.71,6.2,6.11.03,3.4-2.71,6.17-6.11,6.2-10.75.09-16.7-2.35-23.48-5.13-18.64-7.65-28.79-7.65-47.43,0-6.78,2.78-12.73,5.22-23.48,5.13-3.4-.03-6.13-2.8-6.11-6.2.03-3.4,2.8-6.13,6.2-6.11,8.26.07,13.14-1.93,18.7-4.22,22.55-9.25,34.25-9.25,56.79,0Z"/>
        <g>
          <path class="cls-16" d="M97.6,106.06c5.56,2.28,10.44,4.28,18.7,4.22,3.4-.03,6.18,2.71,6.2,6.11.03,3.4-2.71,6.17-6.11,6.2-10.75.09-16.7-2.35-23.48-5.13-18.64-7.65-28.79-7.65-47.43,0-6.78,2.78-12.73,5.22-23.48,5.13-3.4-.03-6.13-2.8-6.11-6.2.03-3.4,2.8-6.13,6.2-6.11,8.26.07,13.14-1.93,18.7-4.22,22.55-9.25,34.25-9.25,56.79,0Z"/>
          <path class="cls-8" d="M97.6,106.06c5.56,2.28,10.44,4.28,18.7,4.22,2.48-.02,4.63,1.43,5.62,3.54-.98,2.08-3.08,3.52-5.52,3.54-10.75.09-16.7-2.35-23.48-5.13-18.64-7.65-28.79-7.65-47.43,0-6.78,2.78-12.73,5.22-23.48,5.13-2.45-.02-4.55-1.46-5.52-3.54.99-2.11,3.14-3.56,5.62-3.54,8.26.07,13.14-1.93,18.7-4.22,22.55-9.25,34.25-9.25,56.79,0Z"/>
          <path class="cls-4" d="M25.13,113.53c-.51,0-.93-.41-.93-.93s.41-.93.93-.93c5.35,0,11.35-2.39,17.83-4.97,7.97-3.17,16.64-6.62,25.98-6.47,9.33-.15,18.01,3.3,25.98,6.47,6.48,2.58,12.48,4.97,17.83,4.97.51,0,.93.41.93.93s-.42.93-.93.93c-5.68,0-11.85-2.45-18.51-5.11-7.81-3.11-16.31-6.49-25.28-6.34h-.03c-8.97-.15-17.47,3.23-25.28,6.34-6.66,2.65-12.83,5.11-18.51,5.11Z"/>
        </g>
      </g>
      <g>
        <path class="cls-12" d="M59.94,116.07h0c-18.66,0-33.94,15.27-33.94,33.93v10.24h0c18.66,0,33.94-15.27,33.94-33.93v-10.24Z"/>
        <path class="cls-12" d="M55.76,116.07h0c-14.74,4.88-22.81,20.94-17.93,35.68l2.68,8.09h0c14.74-4.88,22.81-20.94,17.93-35.68l-2.68-8.09Z"/>
        <path class="cls-12" d="M53.05,116.07h0c-9.11,8.38-10.8,23.68-3.76,34.02l3.21,4.71h0c9.11-8.38,10.8-23.68,3.76-34.02l-3.21-4.71Z"/>
        <path class="cls-2" d="M48.35,118.12c-13,4.76-22.34,17.28-22.34,31.88v10.24h.21c13-4.76,22.34-17.29,22.34-31.88v-10.24h-.21Z"/>
      </g>
      <g>
        <path class="cls-12" d="M78.46,116.07h0c18.67,0,33.93,15.27,33.93,33.93v10.24h0c-18.66,0-33.93-15.27-33.93-33.93v-10.24Z"/>
        <path class="cls-12" d="M82.64,116.07h0c14.74,4.88,22.81,20.94,17.93,35.68l-2.68,8.09h0c-14.74-4.88-22.81-20.94-17.93-35.68l2.68-8.09Z"/>
        <path class="cls-12" d="M85.35,116.07h0c9.11,8.38,10.8,23.68,3.75,34.02l-3.21,4.71h0c-9.11-8.38-10.8-23.68-3.76-34.02l3.21-4.71Z"/>
        <path class="cls-2" d="M90.05,118.12c13,4.76,22.34,17.28,22.34,31.88v10.24h-.21c-13-4.76-22.34-17.29-22.34-31.88v-10.24h.21Z"/>
      </g>
      <g>
        <path class="cls-15" d="M69.2,131.91c9.51,0,17.26-6.13,17.26-13.65s-7.75-13.65-17.26-13.65-17.26,6.13-17.26,13.65,7.75,13.65,17.26,13.65Z"/>
        <path class="cls-10" d="M69.2,104.61c7.81,0,14.4,4.1,16.53,9.72-2.13,5.62-8.73,9.72-16.53,9.72s-14.4-4.1-16.53-9.72c2.13-5.62,8.73-9.72,16.53-9.72Z"/>
        <path class="cls-11" d="M69.2,118.52c5.98,0,10.86-2.58,10.86-5.75s-4.88-5.75-10.86-5.75-10.86,2.58-10.86,5.75,4.88,5.75,10.86,5.75Z"/>
      </g>
      <path class="cls-4" d="M69.99,83.01c-.26,0-.53,0-.79,0-.26,0-.53,0-.79,0-12.54-.03-25.27,4.58-32.8,7.14l-1.66,5.37c8.63-2.95,21.58-7.19,34.35-7.16.3,0,.59,0,.89.01.3,0,.59,0,.89-.01,12.78-.03,25.9,4.22,34.67,7.17l-1.72-5.4c-7.67-2.57-20.54-7.15-33.04-7.12Z"/>
      <path class="cls-4" d="M69.99,46.83c6.95-.02,14.01,1.39,20.23,3.08l-1.72-5.39c-5.86-1.38-12.18-2.38-18.43-2.37-.3,0-.59,0-.89.01-.3,0-.59,0-.89-.01-6.33-.02-12.69,1.02-18.56,2.42l-1.68,5.41c6.21-1.73,13.31-3.17,20.35-3.16.26,0,.53,0,.79,0,.26,0,.53,0,.79,0h0ZM49.73,44.58l-1.68,5.41,1.68-5.41Z"/>
    </g>
  </g>
</svg>