<?xml version="1.0" encoding="UTF-8"?>
<svg id="Layer_2" data-name="Layer 2" xmlns="http://www.w3.org/2000/svg" viewBox="0 0 138.4 144.85">
  <defs>
    <style>
      .cls-1 {
        fill: #86151d;
      }

      .cls-1, .cls-2, .cls-3, .cls-4, .cls-5, .cls-6, .cls-7, .cls-8, .cls-9, .cls-10, .cls-11, .cls-12, .cls-13, .cls-14, .cls-15 {
        fill-rule: evenodd;
      }

      .cls-2 {
        fill: #5c382f;
      }

      .cls-3 {
        fill: #657c4b;
      }

      .cls-4 {
        fill: #fff;
      }

      .cls-5 {
        fill: #c59234;
      }

      .cls-6 {
        fill: #50613c;
      }

      .cls-7 {
        fill: #ebebeb;
      }

      .cls-8 {
        fill: #f1efe9;
      }

      .cls-9 {
        fill: #edcbab;
      }

      .cls-10 {
        fill: #f7e8d8;
      }

      .cls-11 {
        fill: #553026;
      }

      .cls-12 {
        fill: #ab121a;
      }

      .cls-13 {
        fill: #d8d8d8;
      }

      .cls-14 {
        fill: #dd9968;
      }

      .cls-15 {
        fill: #c4c4c4;
      }
    </style>
  </defs>
  <g id="OBJECTS">
    <g>
      <g>
        <g>
          <path class="cls-11" d="M45.69,124.2c-10.74,0-19.45,8.05-19.45,17.98h38.9c0-9.93-8.71-17.98-19.45-17.98Z"/>
          <path class="cls-2" d="M24.87,140.92h41.65c1.08,0,1.96.88,1.96,1.96h0c0,1.08-.88,1.96-1.96,1.96H24.87c-1.08,0-1.96-.88-1.96-1.96h0c0-1.08.88-1.96,1.96-1.96Z"/>
        </g>
        <g>
          <path class="cls-11" d="M96.52,124.2c-10.74,0-19.45,8.05-19.45,17.98h38.9c0-9.93-8.71-17.98-19.45-17.98Z"/>
          <path class="cls-2" d="M75.7,140.92h41.65c1.08,0,1.96.88,1.96,1.96h0c0,1.08-.88,1.96-1.96,1.96h-41.65c-1.08,0-1.96-.88-1.96-1.96h0c0-1.08.88-1.96,1.96-1.96Z"/>
        </g>
      </g>
      <g>
        <g>
          <path class="cls-14" d="M114.13,116.95c.02,4.74,2.09,8.58,4.61,8.56,1.38,0,2.62-1.17,3.44-3,10.79,11.3,22.32-1.4,12.49-13.57-7.38-9.14-20.61-3.87-20.55,8Z"/>
          <path class="cls-9" d="M126.27,113.12c2.24-1.96,3.73-4.98,3.72-7.86,1.69.75,3.29,1.96,4.69,3.69,7.41,9.18,2.67,18.66-4.73,17.92-5.89-.77-6.77-4.92-7.39-7.56-.96-4.1,1.52-4.26,3.72-6.19Z"/>
        </g>
        <path class="cls-14" d="M24.27,116.95c-.02,4.74-2.09,8.58-4.61,8.56-1.38,0-2.62-1.17-3.44-3-10.79,11.3-22.32-1.4-12.5-13.57,7.38-9.14,20.61-3.87,20.55,8Z"/>
        <path class="cls-9" d="M12.13,113.12c-2.24-1.96-3.73-4.98-3.72-7.86-1.68.75-3.29,1.96-4.69,3.69-7.41,9.18-2.67,18.66,4.73,17.92,5.89-.77,6.77-4.92,7.39-7.56.96-4.1-1.52-4.26-3.72-6.19Z"/>
      </g>
      <g>
        <path class="cls-15" d="M16.96,71.18c3.77,0,6.84-3.07,6.84-6.84s-3.07-6.84-6.84-6.84-6.84,3.07-6.84,6.84,3.07,6.84,6.84,6.84Z"/>
        <path class="cls-7" d="M16.96,57.49c-3.78,0-6.84,3.06-6.84,6.84,0,.96.2,1.87.55,2.7,1.19,1.01,2.73,1.61,4.41,1.61,3.78,0,6.84-3.06,6.84-6.84,0-.96-.2-1.87-.55-2.7-1.19-1.01-2.73-1.61-4.41-1.61Z"/>
        <path class="cls-4" d="M13.55,59.56c1.68-1.04,3.58-1.01,4.25.06.66,1.07-.16,2.79-1.84,3.83-1.68,1.04-3.58,1.01-4.25-.06-.66-1.07.16-2.79,1.84-3.83Z"/>
      </g>
      <g>
        <path class="cls-6" d="M100.97,78.77c4.39-3.22,19.07,9.35,25.61,18.29,8.7,11.88-7.2,23.53-15.9,11.64-6.54-8.93-14.1-26.71-9.71-29.93Z"/>
        <path class="cls-3" d="M104.72,78.59c6.22,1.88,16.63,11.33,21.86,18.47,3.17,4.33,3.07,8.63,1.25,11.77-2.44-.07-5.06-1.09-7.54-3.42-7.61-7.13-17.56-21.83-15.57-26.82Z"/>
        <path class="cls-6" d="M38.18,78.77c-4.39-3.22-19.07,9.35-25.61,18.29-8.7,11.88,7.2,23.53,15.9,11.64,6.54-8.93,14.1-26.71,9.71-29.93Z"/>
        <path class="cls-3" d="M34.43,78.59c-6.22,1.88-16.63,11.33-21.86,18.47-3.17,4.33-3.07,8.63-1.25,11.77,2.44-.07,5.06-1.09,7.54-3.42,7.61-7.13,17.56-21.83,15.57-26.82Z"/>
      </g>
      <path class="cls-6" d="M71.11,58.95c-23.54,0-42.62,25.98-42.62,48.25s19.08,32.42,42.62,32.42,42.63-10.14,42.63-32.42-19.08-48.25-42.63-48.25Z"/>
      <path class="cls-1" d="M66.69.64c-1.77.92-17.89,13.63-21.65,17.28l-22.5,37.59c-1.81,3.02-2.31,5.01-1.29,6.13.7.76,1.88,1.55,4.71.27l53.64-25.08L66.69.64Z"/>
      <path class="cls-8" d="M71.11,58.95c-23.54,0-42.62,21.19-42.62,39.37s19.08,26.45,42.62,26.45,42.63-8.27,42.63-26.45-19.08-39.37-42.63-39.37Z"/>
      <g>
        <path class="cls-13" d="M52.55,122.75c3.63.88,7.56,1.47,11.68,1.77,1.83-3.42,2.88-7.32,2.88-11.45v-31.28c-8.55,3.79-14.55,12.37-14.55,22.28v18.67Z"/>
        <path class="cls-13" d="M77.99,124.52c4.12-.3,8.04-.89,11.67-1.77v-18.67c0-9.91-6-18.49-14.55-22.28v31.28c0,4.13,1.04,8.03,2.88,11.45Z"/>
      </g>
      <path class="cls-13" d="M71.11,75.77c9.53,0,17.26,6.11,17.26,13.65s-7.73,13.65-17.26,13.65-17.26-6.11-17.26-13.65,7.73-13.65,17.26-13.65Z"/>
      <path class="cls-1" d="M103.26,41.43l8.65,34.52c.97,3.87-19.87-8.11-40-8.06-20.66.05-42.34,12.09-41.59,8.06l6.42-34.52c9.96-53.52,52.25-56.94,66.52,0Z"/>
      <path class="cls-12" d="M93.67,71.44c-6.56-1.9-14.21-3.57-21.77-3.55h-.17c-.06,0-.11,0-.17,0-.15,0-.3,0-.45,0-7.92.13-15.95,1.97-22.77,3.94l3.22-30.41C54.4,14.68,61.83.44,69.56.01c.52.01,1.04.05,1.56.1,7.24,1.33,14.49,14.75,18.28,41.32l4.27,30.01Z"/>
      <path class="cls-5" d="M34.33,54.39l1.78-9.55c1.02-.53,2.07-1.04,3.14-1.53-.59,3.08-1.03,7.45-1.16,8.84-1.32.72-2.58,1.47-3.76,2.23h0ZM41.33,42.39c1.12-.48,2.27-.93,3.44-1.37-.44,3.02-.71,6.92-.8,8.28-1.36.58-2.67,1.19-3.93,1.82.24-2.34.73-6.54,1.29-8.74h0ZM46.74,40.32c1.26-.43,2.54-.84,3.84-1.21-.29,2.56-.42,5.97-.48,7.89-.52.17-1.04.35-1.56.53-.91.32-1.8.65-2.67,1,.14-2.01.44-5.77.86-8.2h0ZM52.51,38.58c1.31-.34,2.63-.66,3.97-.94l-.37,7.66c-1.4.33-2.78.71-4.13,1.11.07-2.2.22-5.65.53-7.83h0ZM58.34,37.28c1.5-.28,3.02-.51,4.54-.7v7.45c-1.65.23-3.29.51-4.91.85l.37-7.61h0ZM64.73,36.38c1.54-.15,3.08-.25,4.63-.29v7.39c-1.55.05-3.1.16-4.64.33v-7.42h0ZM71.2,36.06c1.55,0,3.09.07,4.64.18v7.41c-1.54-.13-3.1-.2-4.65-.2v-7.38h0ZM77.69,36.4c1.52.15,3.03.35,4.52.59l.37,7.56c-1.61-.3-3.24-.55-4.88-.73v-7.43h0ZM84.08,37.31c1.32.25,2.63.53,3.92.83.33,2,.5,5.42.58,7.79-1.36-.37-2.74-.71-4.14-1.01l-.37-7.61h0ZM89.93,38.63c1.28.34,2.55.71,3.79,1.11.44,2.15.76,5.84.93,8.14-.32-.12-.64-.23-.96-.35-1.06-.37-2.14-.73-3.24-1.06-.07-2.11-.21-5.45-.52-7.84h0ZM95.71,40.4l.44.15c.97.34,1.92.7,2.86,1.07.59,1.61,1.13,5.89,1.43,8.66-1.25-.59-2.55-1.15-3.88-1.68-.13-1.86-.42-5.53-.84-8.21h0ZM101.16,42.51c.91.39,1.79.79,2.66,1.2l2.42,9.65c-1.22-.73-2.5-1.44-3.85-2.12-.21-2.1-.67-6.13-1.24-8.73Z"/>
      <path class="cls-2" d="M58.93,76.77h0c-13.4,0-24.36,10.96-24.36,24.36v36.3h0c13.4,0,24.36-10.96,24.36-24.36v-36.3Z"/>
      <path class="cls-11" d="M44.38,135.35c8.55-3.79,14.55-12.37,14.55-22.28v-31.28c-8.55,3.79-14.55,12.37-14.55,22.28v31.28Z"/>
      <path class="cls-2" d="M83.29,76.77h0c13.4,0,24.36,10.96,24.36,24.36v36.3h0c-13.4,0-24.36-10.96-24.36-24.36v-36.3Z"/>
      <path class="cls-4" d="M70.72,48.5c.84-1.69,1.68-2.53,3.37-2.53,1.86,0,3.37,1.51,3.37,3.37,0,3.37-3.37,4.38-6.74,7.75-3.37-3.37-6.74-4.38-6.74-7.75,0-1.86,1.51-3.37,3.37-3.37,1.69,0,2.53.84,3.37,2.53Z"/>
      <path class="cls-4" d="M52.74,52.26c.84-1.69,1.68-2.53,3.37-2.53,1.86,0,3.37,1.51,3.37,3.37,0,3.37-3.37,4.38-6.74,7.75-3.37-3.37-6.74-4.38-6.74-7.75,0-1.86,1.51-3.37,3.37-3.37,1.69,0,2.53.84,3.37,2.53Z"/>
      <path class="cls-4" d="M35.25,57c.84-1.69,1.69-2.53,3.37-2.53,1.86,0,3.37,1.51,3.37,3.37,0,3.37-3.37,4.38-6.74,7.75-.88-.88-1.77-1.61-2.59-2.25l1.49-8c.41.41.76.96,1.11,1.66Z"/>
      <path class="cls-4" d="M88.61,52.26c-.84-1.69-1.68-2.53-3.37-2.53-1.86,0-3.37,1.51-3.37,3.37,0,3.37,3.37,4.38,6.74,7.75,3.37-3.37,6.74-4.38,6.74-7.75,0-1.86-1.51-3.37-3.37-3.37-1.69,0-2.53.84-3.37,2.53Z"/>
      <path class="cls-4" d="M106.1,57c-.84-1.69-1.69-2.53-3.37-2.53-1.86,0-3.37,1.51-3.37,3.37,0,3.37,3.37,4.38,6.74,7.75.9-.9,1.8-1.63,2.63-2.28l-1.89-7.55c-.26.34-.5.76-.74,1.24Z"/>
      <g>
        <path class="cls-4" d="M69.01,28.32c1.44-.05,2.65,1.09,2.7,2.53.05,1.44-1.09,2.65-2.53,2.7-1.44.05-2.65-1.09-2.7-2.53-.05-1.44,1.09-2.65,2.53-2.7Z"/>
        <path class="cls-4" d="M59,29.36c1.44-.05,2.65,1.09,2.7,2.53.05,1.44-1.09,2.65-2.53,2.7-1.44.05-2.65-1.09-2.7-2.53-.05-1.44,1.09-2.65,2.53-2.7Z"/>
        <path class="cls-4" d="M49.18,31.71c1.44-.05,2.65,1.09,2.7,2.53.05,1.44-1.09,2.65-2.53,2.7-1.44.05-2.65-1.09-2.7-2.53-.05-1.44,1.09-2.65,2.53-2.7Z"/>
        <path class="cls-4" d="M39.36,34.07c1.44-.05,2.65,1.09,2.7,2.53.04,1.44-1.09,2.65-2.53,2.69-.87.03-1.65-.37-2.15-1.01.3-1.36.61-2.68.95-3.97.31-.15.66-.24,1.03-.25Z"/>
        <path class="cls-4" d="M79.34,28.71c-1.44.05-2.58,1.25-2.53,2.7.05,1.44,1.25,2.58,2.7,2.53,1.44-.05,2.58-1.25,2.53-2.7-.05-1.44-1.25-2.58-2.7-2.53Z"/>
        <path class="cls-4" d="M89.29,30.44c-1.44.05-2.58,1.25-2.53,2.7.05,1.44,1.25,2.58,2.7,2.53,1.44-.05,2.58-1.25,2.53-2.7-.05-1.44-1.25-2.58-2.7-2.53Z"/>
        <path class="cls-4" d="M99.23,32.17c-1.44.04-2.58,1.25-2.53,2.7.04,1.44,1.25,2.58,2.7,2.53,1.04-.03,1.91-.66,2.31-1.55-.35-1.14-.71-2.24-1.08-3.32-.41-.24-.89-.37-1.4-.35Z"/>
      </g>
      <path class="cls-11" d="M97.84,135.35c-8.55-3.79-14.55-12.37-14.55-22.28v-31.28c8.55,3.79,14.55,12.37,14.55,22.28v31.28Z"/>
      <path class="cls-5" d="M43.53,20.08l.27-.09c-.43,2.93-.71,6.75-.8,8.25-1.13.45-2.24.93-3.31,1.41,1.13-3.49,2.42-6.68,3.84-9.57h0ZM45.77,19.32c1.26-.4,2.53-.79,3.83-1.14-.29,2.55-.42,5.95-.48,7.88-.57.18-1.14.36-1.7.55-.85.29-1.69.58-2.52.89.15-2.06.45-5.79.87-8.18h0ZM51.52,17.68c1.31-.33,2.63-.63,3.97-.9l-.37,7.66c-1.4.32-2.77.68-4.13,1.06.07-2.2.22-5.64.53-7.83h0ZM57.36,16.42c1.5-.27,3.02-.5,4.54-.69v7.46c-1.66.23-3.29.51-4.91.84l.37-7.61h0ZM63.75,15.52c1.54-.16,3.08-.27,4.63-.33v7.39c-1.55.07-3.1.2-4.64.37v-7.43h.01ZM70.22,15.14c.31,0,.62,0,.94,0,1.23,0,2.47.04,3.7.1v7.4c-1.23-.07-2.47-.11-3.7-.12-.31,0-.63,0-.95.01v-7.38h.01ZM76.71,15.36c1.51.12,3.02.28,4.51.48l.36,7.52c-1.61-.25-3.24-.45-4.87-.59v-7.41h0ZM83.08,16.1c1.29.2,2.58.44,3.86.7.36,1.78.55,5.21.65,7.73-1.36-.32-2.75-.61-4.14-.86l-.37-7.57h0ZM88.88,17.22c1.25.28,2.49.59,3.71.93.47,1.78.82,5.47,1.02,8.04-1.36-.43-2.75-.83-4.16-1.2-.08-2.27-.24-5.56-.57-7.77h0ZM94.64,18.94c1.56,2.75,3.02,5.8,4.36,9.16-1.14-.45-2.3-.88-3.49-1.29-.16-2.15-.46-5.52-.87-7.88Z"/>
      <g>
        <path class="cls-15" d="M99.5,68.72c5.56,2.28,10.44,4.28,18.71,4.22,3.4-.03,6.17,2.71,6.2,6.11.03,3.4-2.71,6.17-6.11,6.2-10.75.09-16.7-2.35-23.48-5.13-18.64-7.65-28.79-7.65-47.43,0-6.78,2.78-12.73,5.22-23.48,5.13-3.4-.03-6.13-2.8-6.1-6.2.03-3.4,2.8-6.13,6.2-6.11,8.26.07,13.14-1.94,18.7-4.22,22.55-9.25,34.25-9.25,56.79,0Z"/>
        <path class="cls-7" d="M99.5,68.72c5.56,2.28,10.44,4.28,18.71,4.22,2.48-.02,4.63,1.43,5.62,3.54-.98,2.08-3.08,3.52-5.52,3.54-10.75.09-16.7-2.35-23.48-5.13-18.64-7.65-28.79-7.65-47.43,0-6.78,2.78-12.73,5.22-23.48,5.13-2.45-.02-4.55-1.46-5.52-3.54.99-2.11,3.14-3.56,5.62-3.54,8.26.07,13.14-1.94,18.7-4.22,22.55-9.25,34.25-9.25,56.79,0Z"/>
        <path class="cls-4" d="M27.04,76.19c-.51,0-.93-.41-.93-.93s.41-.93.93-.93c5.35,0,11.35-2.39,17.83-4.97,7.97-3.17,16.64-6.62,25.98-6.47,9.33-.15,18.01,3.3,25.98,6.47,6.48,2.58,12.48,4.97,17.83,4.97.51,0,.93.41.93.93s-.41.93-.93.93c-5.68,0-11.85-2.45-18.51-5.11-7.81-3.11-16.31-6.49-25.28-6.34h-.03c-8.97-.15-17.47,3.23-25.28,6.34-6.66,2.65-12.83,5.11-18.51,5.11Z"/>
      </g>
      <g>
        <path class="cls-14" d="M71.11,95.87c9.51,0,17.26-6.13,17.26-13.65s-7.75-13.65-17.26-13.65-17.26,6.13-17.26,13.65,7.75,13.65,17.26,13.65Z"/>
        <path class="cls-9" d="M71.11,68.58c7.81,0,14.4,4.1,16.54,9.72-2.13,5.62-8.73,9.72-16.54,9.72s-14.4-4.1-16.53-9.72c2.13-5.62,8.73-9.72,16.53-9.72Z"/>
        <path class="cls-10" d="M71.11,82.49c5.98,0,10.86-2.58,10.86-5.75s-4.88-5.75-10.86-5.75-10.86,2.58-10.86,5.75,4.88,5.75,10.86,5.75Z"/>
      </g>
    </g>
  </g>
</svg>